<svg width="1039" height="1194" viewBox="0 0 1039 1194" fill="none" xmlns="http://www.w3.org/2000/svg">
<path d="M595.126 176.847C744.495 173.806 833.176 250.767 849.407 301.996L1031.71 252.404C1001.36 187.139 896.687 13.5676 601.477 0C42.1057 0 0 521.885 0 574.752C0 1124.24 410.472 1185.29 570.192 1192.55C727.054 1197.99 884.076 1188.12 1039 1163.07V498.727L461.987 498.727V682.357H822.355C823.252 682.355 824.116 682.693 824.771 683.301C825.426 683.909 825.824 684.743 825.884 685.632V1007.75C825.79 1008.71 825.434 1009.64 824.854 1010.42C824.274 1011.2 823.492 1011.81 822.591 1012.19C750.562 1024.1 677.488 1028.57 604.535 1025.52C553.961 1023.89 237.345 1011.25 237.345 598.846C237.345 333.576 370.483 179.186 595.126 177.782" fill="#280410"/>
</svg>
