<svg width="720" height="945" viewBox="0 0 720 945" fill="none" xmlns="http://www.w3.org/2000/svg">
<path d="M276.126 133.847C425.495 130.806 514.176 207.767 530.407 258.996L712.708 209.404C682.364 144.139 577.687 -29.4324 282.477 -43C-276.894 -43 -319 478.885 -319 531.752C-319 1081.24 91.4721 1142.29 251.192 1149.55C408.054 1154.99 565.076 1145.12 720 1120.07V455.727L142.987 455.727V639.357H503.355C504.252 639.355 505.116 639.693 505.771 640.301C506.426 640.909 506.824 641.743 506.884 642.632V964.746C506.79 965.714 506.434 966.638 505.854 967.42C505.274 968.203 504.492 968.814 503.591 969.19C431.562 981.102 358.488 985.57 285.535 982.524C234.961 980.887 -81.6554 968.255 -81.6554 555.846C-81.6554 290.576 51.4833 136.186 276.126 134.782" fill="#280410"/>
</svg>
