<svg width="38" height="38" viewBox="0 0 38 38" fill="none" xmlns="http://www.w3.org/2000/svg">
<path d="M0.444913 18.263C0.674744 7.96397 9.21837 -0.21497 19.5221 0.00430808C29.8293 0.231794 38.0024 8.77893 37.7808 19.0932C37.5521 29.3946 29.0061 37.5641 18.7024 37.346C8.39402 37.1185 0.215082 28.5796 0.444913 18.263Z" fill="white"/>
<path d="M19.5034 0.72766C29.4096 0.941075 37.286 9.16927 37.0679 19.0731C36.8498 28.9746 28.6146 36.851 18.7166 36.6306C8.82563 36.4089 0.942185 28.1796 1.1556 18.2839C1.38191 8.38596 9.61128 0.50721 19.5034 0.72766Z" fill="#444444"/>
<path d="M19.4929 1.4371C28.9933 1.65051 36.566 9.55389 36.3515 19.0614C36.1416 28.5595 28.237 36.1252 18.733 35.9188C9.22551 35.7089 1.66336 27.8055 1.87443 18.2945C2.07846 8.78818 9.98888 1.23424 19.4929 1.4371Z" fill="white"/>
<path d="M8.59211 18.447C8.72344 12.6344 13.5323 8.02957 19.3484 8.15738C25.1611 8.28285 29.7612 13.1011 29.6357 18.9137C29.5067 24.7181 24.7026 29.323 18.8794 29.1998C13.0691 29.0767 8.46664 24.2585 8.59211 18.4482V18.447Z" fill="#444444"/>
<path d="M9.24656 18.466C9.36382 13.0111 13.8795 8.68999 19.3345 8.81311C24.7789 8.93389 29.0953 13.4496 28.978 18.9046C28.8608 24.3431 24.3451 28.6712 18.8959 28.5481C13.4468 28.4273 9.12109 23.9151 9.24656 18.466Z" fill="white"/>
<path d="M10.0298 27.4782L7.99062 29.3872L7.60132 28.9756L9.64986 27.0713L10.031 27.4794L10.0298 27.4782Z" fill="#444444"/>
<path d="M8.26498 25.2515L8.57806 25.6877L7.72909 26.281C7.5532 26.4159 7.45001 26.505 7.4078 26.5613C7.36676 26.614 7.34682 26.675 7.34682 26.7348C7.34682 26.7946 7.37145 26.8556 7.41132 26.9166C7.46408 26.9928 7.53913 27.042 7.62356 27.0702C7.70447 27.1065 7.79124 27.1171 7.86746 27.0843C7.95658 27.0502 8.09377 26.9775 8.27553 26.8403L9.02013 26.3174L9.33322 26.7536L7.68336 27.9309L7.39021 27.5146L7.63059 27.3493C7.34565 27.3352 7.12754 27.2261 6.97042 27.0033C6.90592 26.9048 6.85667 26.8122 6.83674 26.6985C6.80625 26.6011 6.8168 26.5085 6.83674 26.4299C6.85902 26.3537 6.90592 26.2787 6.95752 26.2165C7.0138 26.152 7.11113 26.0688 7.23191 25.9761L8.26146 25.2515H8.26498Z" fill="#444444"/>
<path d="M6.36668 25.9847L6.23769 25.7303L6.1087 25.7889C5.95157 25.8722 5.82845 25.912 5.73933 25.9238C5.65021 25.9273 5.55758 25.8956 5.47315 25.8393C5.37231 25.7748 5.29374 25.6822 5.22456 25.5462C5.15537 25.409 5.1073 25.273 5.07446 25.1182L5.44032 25.0138C5.47315 25.1006 5.49308 25.1792 5.52943 25.2436C5.5693 25.3128 5.60565 25.3527 5.6549 25.3609C5.70181 25.3797 5.77216 25.3609 5.86715 25.3128L5.99613 25.2519L5.80617 24.8942L6.1814 24.6949L6.36316 25.0584L7.78905 24.3149L8.03999 24.7934L6.60589 25.5286L6.75129 25.7889L6.36785 25.9847H6.36668Z" fill="#444444"/>
<path d="M6.55176 24.235C6.38876 24.2995 6.21287 24.3054 6.03112 24.2819C5.84116 24.2538 5.67934 24.1811 5.55269 24.058C5.39674 23.9431 5.30879 23.7777 5.23609 23.5936C5.13525 23.3087 5.15166 23.039 5.26892 22.7833C5.39674 22.5312 5.59843 22.3612 5.88689 22.258C6.17418 22.149 6.4427 22.163 6.70302 22.2838C6.95279 22.4022 7.13102 22.6051 7.23656 22.8854C7.29753 23.0613 7.31278 23.2465 7.29753 23.4271C7.2647 23.6112 7.20021 23.7719 7.07474 23.9137C6.95396 24.0509 6.77572 24.1565 6.5541 24.235H6.55176ZM6.40401 23.7027C6.58928 23.6335 6.72296 23.5455 6.78511 23.4154C6.85781 23.2946 6.86367 23.1644 6.82497 23.0331C6.77221 22.8994 6.68543 22.8091 6.55058 22.7529C6.41573 22.6966 6.25626 22.713 6.06981 22.7751C5.88337 22.8455 5.75086 22.937 5.67816 23.0624C5.61367 23.1938 5.5996 23.3192 5.64768 23.4447C5.6981 23.5737 5.78722 23.6745 5.91268 23.7273C6.04988 23.7777 6.20701 23.7742 6.40401 23.7027Z" fill="#444444"/>
<path d="M6.70189 21.0984L6.80625 21.6132L4.81868 22.0165L4.72135 21.5193L5.00864 21.4642C4.85855 21.4138 4.75419 21.3528 4.70025 21.2907C4.64514 21.2321 4.60878 21.1558 4.59354 21.0726C4.55953 20.9588 4.57712 20.8381 4.61582 20.7173L5.11066 20.7853C5.07079 20.8861 5.05438 20.9706 5.07079 21.0503C5.08252 21.1148 5.11887 21.1793 5.17515 21.2215C5.21971 21.2684 5.30297 21.2907 5.41202 21.2942C5.52459 21.3083 5.74973 21.2754 6.08862 21.2156L6.70306 21.096L6.70189 21.0984Z" fill="#444444"/>
<path d="M4.46108 20.2916L4.44936 19.7944H4.73664C4.51268 19.6174 4.40128 19.4087 4.40128 19.1659C4.3919 19.0428 4.42942 18.9173 4.47633 18.8282C4.53027 18.7356 4.61 18.6511 4.71906 18.5855C4.61 18.5011 4.52675 18.4014 4.47046 18.3005C4.41769 18.2032 4.38721 18.0883 4.38721 17.9757C4.38721 17.8221 4.41769 17.7037 4.47633 17.6005C4.5373 17.4914 4.61938 17.4164 4.74251 17.3601C4.82693 17.3238 4.96061 17.3073 5.15409 17.3073L6.45217 17.2886L6.46038 17.8221L5.30184 17.8327C5.1025 17.8385 4.96413 17.8585 4.90784 17.8972C4.83514 17.9499 4.80231 18.0261 4.80231 18.127C4.80231 18.2032 4.82224 18.2783 4.87149 18.3369C4.91136 18.4014 4.98524 18.4459 5.06966 18.4799C5.15878 18.5081 5.30184 18.5268 5.4918 18.5268L6.46272 18.5104L6.46741 19.0463L5.36282 19.0545C5.15878 19.0604 5.0298 19.0733 4.98055 19.0932C4.92426 19.1073 4.88322 19.1436 4.85977 19.18C4.82342 19.2187 4.81169 19.275 4.81169 19.3359C4.81169 19.4262 4.83632 19.5013 4.88439 19.5658C4.92543 19.6408 4.99814 19.6772 5.07084 19.7053C5.15527 19.7311 5.30301 19.7452 5.49298 19.7452L6.47445 19.7311L6.48266 20.2729L4.46343 20.2916H4.46108Z" fill="#444444"/>
<path d="M5.26795 16.2259L5.08268 16.6808C4.90444 16.5917 4.78015 16.471 4.71917 16.3209C4.64881 16.1719 4.64647 15.9679 4.70041 15.7111C4.74262 15.4789 4.8036 15.303 4.89272 15.2045C4.9619 15.1013 5.05454 15.0392 5.15069 15.0064C5.23981 14.9735 5.39694 14.9841 5.63498 15.0392L6.24473 15.1658C6.41593 15.2045 6.54609 15.2186 6.63638 15.2186C6.72668 15.2186 6.81814 15.2045 6.92719 15.1764L6.80759 15.6994C6.77358 15.7076 6.72316 15.7111 6.64577 15.7193C6.61293 15.7193 6.59769 15.7193 6.58479 15.7252C6.65163 15.8295 6.69971 15.9398 6.71612 16.0523C6.74426 16.1649 6.73606 16.2822 6.71612 16.3936C6.67508 16.5999 6.58479 16.7489 6.45111 16.8438C6.31157 16.933 6.16265 16.9717 5.99262 16.933C5.88357 16.9083 5.78624 16.8567 5.71354 16.7876C5.63263 16.7172 5.57986 16.6257 5.55407 16.5272C5.52592 16.4123 5.51772 16.2704 5.52123 16.0793C5.52123 15.8248 5.51772 15.6478 5.49309 15.5422L5.43681 15.534C5.34183 15.5094 5.26561 15.5258 5.20932 15.5622C5.15655 15.5985 5.11668 15.6935 5.08854 15.8307C5.06861 15.9233 5.06861 16.0019 5.09206 16.057C5.1202 16.1215 5.18118 16.1719 5.26561 16.2271L5.26795 16.2259ZM5.83315 15.6196C5.85308 15.6923 5.85308 15.8014 5.85308 15.9386C5.85308 16.1028 5.86481 16.2036 5.88592 16.254C5.91406 16.3373 5.97855 16.3795 6.05125 16.3936C6.11926 16.4053 6.18845 16.3971 6.25763 16.3513C6.32213 16.3009 6.35848 16.2505 6.3831 16.1579C6.40069 16.0676 6.38896 15.9679 6.34675 15.8753C6.30571 15.8026 6.25763 15.7416 6.18962 15.7123C6.15327 15.6935 6.07236 15.6572 5.94689 15.6361L5.83315 15.622V15.6196Z" fill="#444444"/>
<path d="M5.43892 13.332L5.83292 13.4856L5.72387 13.8269L6.48958 14.0954C6.64671 14.1482 6.73466 14.1763 6.77101 14.1822C6.79563 14.1822 6.82377 14.1763 6.84723 14.1564C6.86599 14.1388 6.89178 14.1095 6.9082 14.0778C6.91993 14.0356 6.93283 13.9582 6.93283 13.8574L7.33269 13.9523C7.34089 14.0895 7.31627 14.2326 7.2635 14.3768C7.23536 14.4742 7.19901 14.5504 7.13451 14.6137C7.08644 14.6723 7.01725 14.7181 6.96097 14.731C6.9082 14.7497 6.82729 14.7497 6.73466 14.731C6.67837 14.7227 6.5529 14.6923 6.3817 14.6254L5.54915 14.3346L5.46003 14.5644L5.05431 14.4237L5.13522 14.1974L4.7635 14.0637L4.64624 13.4505L5.31932 13.6908L5.4401 13.3332L5.43892 13.332Z" fill="#444444"/>
<path d="M5.38622 12.768L4.92773 12.5663L5.15405 12.0762L5.60081 12.2826L5.3874 12.7692L5.38622 12.768ZM7.47229 13.7155L5.63482 12.8771L5.85292 12.3904L7.69743 13.2265L7.47347 13.7155H7.47229Z" fill="#444444"/>
<path d="M6.93535 12.3541C6.77939 12.2626 6.65627 12.136 6.55191 11.9718C6.46279 11.8147 6.41706 11.6388 6.43347 11.4582C6.44168 11.2741 6.49797 11.1053 6.60467 10.927C6.76649 10.662 6.9846 10.5096 7.25078 10.4521C7.52752 10.39 7.79135 10.4298 8.04229 10.594C8.30496 10.7558 8.47029 10.9751 8.54299 11.246C8.60162 11.5204 8.56176 11.7889 8.4058 12.0351C8.30496 12.1981 8.17949 12.3236 8.02236 12.4244C7.86054 12.5229 7.68465 12.564 7.50172 12.5558C7.31645 12.5476 7.13 12.4772 6.93652 12.3517L6.93535 12.3541ZM7.24726 11.9038C7.4126 12.0105 7.56856 12.0539 7.71396 12.0246C7.85702 12.0058 7.95786 11.9319 8.03057 11.8147C8.10327 11.7021 8.1232 11.5661 8.07864 11.4265C8.04229 11.2952 7.93089 11.1697 7.75969 11.063C7.58966 10.9563 7.44074 10.9235 7.29534 10.9423C7.15814 10.9645 7.05261 11.0419 6.9717 11.1604C6.90721 11.2753 6.88258 11.3972 6.93183 11.5403C6.96818 11.6775 7.07254 11.7947 7.24726 11.9038Z" fill="#444444"/>
<path d="M10.337 9.5306L9.97937 9.92694L9.21834 9.23276C9.05301 9.08736 8.94161 9.0041 8.87946 8.9783C8.81849 8.94782 8.75282 8.9443 8.68715 8.95368C8.62852 8.9783 8.5781 9.0041 8.53354 9.05921C8.4667 9.13192 8.42214 9.20813 8.41511 9.2996C8.4069 9.39106 8.41511 9.47314 8.46788 9.54233C8.50774 9.61855 8.61093 9.73229 8.78096 9.89176L9.46107 10.5015L9.10577 10.8955L7.60132 9.54233L7.93317 9.17061L8.15362 9.3723C8.10554 9.08736 8.16534 8.84697 8.3471 8.64176C8.42332 8.56085 8.51244 8.4905 8.61211 8.44828C8.70474 8.40021 8.79738 8.38731 8.88063 8.40021C8.95685 8.40021 9.04597 8.42835 9.11867 8.47291C9.19489 8.51395 9.28401 8.58196 9.40948 8.68632L10.3382 9.53295L10.337 9.5306Z" fill="#444444"/>
<path d="M10.8271 7.88643L11.2575 7.5452C11.3864 7.68005 11.5119 7.76331 11.6491 7.77386C11.7804 7.79966 11.9153 7.76331 12.0607 7.66715C12.2178 7.56631 12.3069 7.46547 12.3433 7.34351C12.3832 7.23446 12.3679 7.13362 12.3152 7.04684C12.2788 6.98587 12.2342 6.94952 12.1756 6.946C12.117 6.91786 12.0443 6.92138 11.9411 6.946C11.8719 6.96242 11.7253 7.00815 11.4943 7.08789C11.2035 7.18873 10.9631 7.22274 10.8095 7.19459C10.5773 7.16293 10.4038 7.04684 10.283 6.87213C10.2103 6.74548 10.1775 6.60712 10.1775 6.46406C10.1775 6.321 10.222 6.16973 10.3194 6.03137C10.4085 5.90003 10.541 5.77457 10.7251 5.65965C11.0159 5.46734 11.2762 5.38526 11.5107 5.42982C11.7488 5.45796 11.9411 5.58108 12.083 5.78746L11.621 6.11228C11.5283 6.00909 11.4228 5.9528 11.3266 5.94108C11.2199 5.92466 11.1121 5.96687 10.9713 6.05247C10.8365 6.14394 10.7474 6.23775 10.7005 6.33976C10.6758 6.41481 10.6864 6.47696 10.7263 6.53793C10.7568 6.60008 10.8189 6.62822 10.8834 6.64464C10.9784 6.64699 11.1484 6.60829 11.4181 6.51565C11.6773 6.4195 11.8965 6.36439 12.0478 6.3597C12.1897 6.33976 12.3304 6.36439 12.4512 6.42419C12.5766 6.48868 12.6939 6.59422 12.7865 6.74548C12.878 6.87447 12.9155 7.01987 12.9155 7.19577C12.9155 7.37166 12.8733 7.51472 12.7654 7.66012C12.6611 7.80318 12.5157 7.94037 12.3046 8.07639C12.0114 8.26167 11.7476 8.33906 11.4967 8.30623C11.2457 8.26987 11.0206 8.13033 10.8236 7.8876L10.8271 7.88643Z" fill="#444444"/>
<path d="M14.4036 6.24698L14.9324 6.12855C14.9406 6.33493 14.8961 6.50847 14.7952 6.66326C14.6979 6.81687 14.5443 6.93179 14.3426 7.01035C14.0131 7.15341 13.7282 7.13816 13.4866 6.98573C13.2931 6.87316 13.1477 6.68906 13.0387 6.4217C12.9132 6.10627 12.8909 5.82836 12.9847 5.59619C13.0739 5.35228 13.2451 5.17874 13.4878 5.08141C13.7704 4.96063 14.0237 4.97236 14.2629 5.08962C14.5009 5.19867 14.6874 5.45665 14.8445 5.82836L13.5968 6.33727C13.6613 6.48619 13.754 6.58821 13.8595 6.64215C13.9662 6.68906 14.0835 6.68906 14.1984 6.64215C14.2746 6.6058 14.3332 6.56359 14.3637 6.49909C14.4048 6.43812 14.4165 6.34783 14.4048 6.24698H14.4036ZM14.2183 5.73338C14.1573 5.58563 14.0835 5.5012 13.9779 5.45665C13.8747 5.40388 13.7704 5.40388 13.6766 5.44023C13.5628 5.48479 13.4983 5.56335 13.4503 5.66771C13.4104 5.77677 13.4256 5.90458 13.4831 6.02888L14.2183 5.73221V5.73338Z" fill="#444444"/>
<path d="M16.8802 4.75453L16.3819 4.97264C16.342 4.86124 16.2845 4.80144 16.2118 4.7604C16.1427 4.72405 16.0524 4.71232 15.955 4.73225C15.8214 4.76861 15.7287 4.83544 15.6724 4.93863C15.6197 5.05355 15.6079 5.21537 15.6607 5.42175C15.717 5.65979 15.7944 5.81574 15.8905 5.89196C15.9961 5.96701 16.111 5.98929 16.2423 5.95646C16.3514 5.94004 16.4135 5.89196 16.4722 5.82513C16.512 5.75008 16.5449 5.64923 16.5367 5.50266L17.0702 5.47452C17.0702 5.71138 17.0057 5.91659 16.8802 6.07489C16.7594 6.23437 16.5695 6.33521 16.3209 6.38798C16.0277 6.46068 15.7733 6.41846 15.5681 6.28244C15.35 6.1429 15.2046 5.91307 15.1377 5.58122C15.0568 5.25641 15.0897 4.98554 15.214 4.76157C15.3488 4.53995 15.5552 4.40041 15.8495 4.32771C16.0934 4.27494 16.2916 4.28315 16.4616 4.35233C16.6211 4.42503 16.763 4.55988 16.8791 4.75688L16.8802 4.75453Z" fill="#444444"/>
<path d="M18.8266 6.03116L18.8067 5.73449C18.7375 5.84003 18.6495 5.92445 18.5323 6.00302C18.4127 6.07337 18.2813 6.10855 18.157 6.11207C18.0198 6.11207 17.8991 6.10034 17.7853 6.04758C17.6739 5.98895 17.5895 5.91155 17.5367 5.8154C17.4816 5.69814 17.4476 5.55039 17.4418 5.36512L17.3608 4.08229L17.9026 4.04828L17.9554 4.98519C17.9753 5.26779 17.9835 5.44134 18.0081 5.50231C18.0281 5.57267 18.0808 5.61371 18.1336 5.65006C18.1817 5.68876 18.2567 5.69814 18.3329 5.69814C18.422 5.68993 18.4983 5.65944 18.571 5.60902C18.6495 5.55039 18.6894 5.4859 18.7058 5.41085C18.734 5.33229 18.7387 5.15053 18.7164 4.85973L18.6636 4.01193L19.2065 3.9873L19.3203 6.00302L18.8278 6.03116H18.8266Z" fill="#444444"/>
<path d="M20.2889 6.08283L19.7495 6.03476L19.9336 4.01904L20.4285 4.07181L20.4003 4.35089C20.5058 4.22542 20.5821 4.14451 20.6524 4.10113C20.7298 4.07298 20.806 4.04836 20.8905 4.06008C21.0159 4.07181 21.1285 4.11637 21.2376 4.19962L21.0312 4.64404C20.9421 4.58189 20.8658 4.54554 20.7849 4.53265C20.7157 4.52678 20.643 4.54554 20.5926 4.58072C20.5258 4.61707 20.4836 4.69447 20.4437 4.79648C20.4109 4.89498 20.3686 5.12129 20.337 5.45666L20.2889 6.08283Z" fill="#444444"/>
<path d="M21.2175 6.20845L21.5975 4.21268L22.1228 4.31352L21.7511 6.30461L21.2175 6.20728V6.20845ZM21.6479 3.94649L21.7405 3.46338L22.2682 3.55601L22.1755 4.04265L21.649 3.94532L21.6479 3.94649Z" fill="#444444"/>
<path d="M23.6732 4.72413L23.5524 5.1275L23.2053 5.03721L22.9813 5.81465C22.9391 5.97413 22.9145 6.07263 22.9145 6.0996C22.9098 6.12774 22.9227 6.14767 22.9391 6.17464C22.9637 6.20513 22.9813 6.22038 23.0235 6.23327C23.0681 6.23796 23.1373 6.24735 23.2416 6.23327L23.1654 6.64486C23.0341 6.67066 22.8945 6.65659 22.7386 6.60616C22.646 6.5874 22.5686 6.53932 22.5064 6.48656C22.4372 6.43848 22.3892 6.37399 22.3727 6.32122C22.3481 6.26024 22.3446 6.1852 22.3563 6.09842C22.368 6.03393 22.3892 5.91081 22.4454 5.73257L22.6917 4.8836L22.4572 4.82145L22.5686 4.40166L22.8066 4.47671L22.918 4.08037L23.5195 3.93262L23.3179 4.61977L23.6732 4.72295V4.72413Z" fill="#444444"/>
<path d="M23.9603 4.79688L24.4856 5.01733L24.3566 6.5253L25.3709 5.39608L25.8693 5.61184L24.441 7.1245L24.1866 7.39537C24.0939 7.47863 24.0166 7.5443 23.9521 7.58885C23.8852 7.63107 23.8242 7.64514 23.7586 7.67211C23.6835 7.68032 23.6167 7.68032 23.537 7.67211C23.4478 7.65804 23.3669 7.63341 23.2661 7.59589C23.1817 7.55602 23.0925 7.49622 23.0034 7.44228L23.1289 7.04007C23.2016 7.08698 23.2626 7.1245 23.3271 7.15382C23.4408 7.20189 23.5416 7.20189 23.6237 7.16203C23.7082 7.10926 23.7891 7.04711 23.8583 6.95799L23.9614 4.79688H23.9603Z" fill="#444444"/>
<path d="M26.1531 8.08933L27.9319 5.93994L28.5804 6.47582L27.7525 8.26874L29.3602 7.12545L30.0098 7.65898L28.2286 9.81189L27.8252 9.48004L29.2253 7.78563L27.4019 9.1224L26.9845 8.77531L27.9612 6.73731L26.5494 8.42587L26.1531 8.08933Z" fill="#444444"/>
<path d="M29.8328 9.58109L29.603 9.15895C29.7847 9.06983 29.9583 9.0581 30.1095 9.09797C30.2667 9.14253 30.4343 9.27386 30.5938 9.48024C30.7533 9.66786 30.8307 9.81913 30.8624 9.94928C30.8905 10.0724 30.8788 10.1791 30.8459 10.2706C30.8096 10.3738 30.697 10.4828 30.5235 10.6235L30.0263 11.0152C29.8891 11.1301 29.7882 11.2145 29.739 11.2837C29.6862 11.3447 29.6299 11.4268 29.5854 11.5276L29.2477 11.1184C29.2641 11.0785 29.3004 11.0339 29.3462 10.9765C29.3579 10.9425 29.379 10.9284 29.3802 10.9237C29.2547 10.9014 29.1374 10.8651 29.0343 10.8205C28.9451 10.7642 28.8572 10.6869 28.7798 10.5942C28.6543 10.4312 28.5898 10.2694 28.6098 10.1041C28.6215 9.94811 28.6907 9.81092 28.8279 9.70421C28.9205 9.62565 29.012 9.58109 29.1187 9.56936C29.2172 9.55529 29.3286 9.56936 29.4212 9.61744C29.5139 9.66786 29.6393 9.75111 29.7847 9.86955C29.9747 10.0396 30.1224 10.1498 30.2127 10.2002L30.2549 10.1639C30.33 10.1029 30.3745 10.0349 30.3745 9.96218C30.3745 9.89769 30.33 9.81092 30.2514 9.70421C30.1869 9.63151 30.1283 9.58109 30.0638 9.56701C30.0028 9.55294 29.9266 9.55294 29.8293 9.58109H29.8328ZM29.9336 10.4172C29.8774 10.3808 29.7882 10.314 29.6757 10.2155C29.5619 10.1252 29.4716 10.0642 29.4247 10.0396C29.3403 10.0232 29.2653 10.0278 29.2066 10.0759C29.1562 10.124 29.1152 10.1885 29.1034 10.2694C29.0929 10.3445 29.1222 10.4172 29.1785 10.4852C29.2371 10.5637 29.3204 10.6106 29.4294 10.6364C29.5056 10.6622 29.5748 10.6587 29.6428 10.6306C29.6874 10.6106 29.7566 10.5637 29.8609 10.4852L29.9336 10.4172Z" fill="#444444"/>
<path d="M30.6373 13.3919L30.3793 12.9193L31.2846 12.4186C31.4745 12.3131 31.5976 12.2368 31.6375 12.1888C31.6903 12.136 31.7126 12.0844 31.7161 12.0105C31.7243 11.9519 31.7079 11.8909 31.675 11.8311C31.6328 11.7443 31.566 11.6857 31.4851 11.6435C31.4065 11.6036 31.3256 11.5884 31.233 11.613C31.1462 11.6294 31.009 11.6857 30.8108 11.7948L30.0064 12.2368L29.7402 11.7666L31.5156 10.7969L31.7595 11.2354L31.4968 11.3726C31.7794 11.423 31.994 11.552 32.123 11.7948C32.1793 11.8956 32.2121 12.007 32.2156 12.1161C32.232 12.2134 32.2156 12.3013 32.1828 12.3787C32.1582 12.4549 32.1066 12.5265 32.0374 12.5804C31.9764 12.6449 31.8756 12.7035 31.7431 12.7809L30.6361 13.393L30.6373 13.3919Z" fill="#444444"/>
<path d="M32.2672 13.7108L32.1922 13.2265C32.3962 13.2101 32.5639 13.2546 32.7011 13.3473C32.8183 13.4387 32.9309 13.624 33.02 13.862C33.0963 14.0884 33.1291 14.2596 33.1092 14.3968C33.0974 14.5257 33.0564 14.6231 32.9884 14.7016C32.9274 14.7779 32.7785 14.8435 32.5639 14.9197L31.9623 15.1214C31.8005 15.1742 31.6833 15.2387 31.6012 15.2645C31.5308 15.3149 31.4534 15.3688 31.3725 15.4439L31.199 14.9573C31.233 14.9315 31.2775 14.8928 31.342 14.8517C31.362 14.8294 31.376 14.8189 31.3983 14.8072C31.2775 14.7544 31.1802 14.6876 31.1052 14.6008C31.0325 14.5093 30.9762 14.419 30.9351 14.3041C30.8624 14.1059 30.8624 13.9371 30.9351 13.7847C30.9996 13.6287 31.1134 13.5302 31.2764 13.4704C31.3819 13.4364 31.4921 13.4294 31.6 13.454C31.6985 13.4704 31.7794 13.5267 31.8721 13.6111C31.9412 13.6838 32.0292 13.7987 32.123 13.9629C32.2496 14.1845 32.347 14.337 32.4138 14.4073L32.4619 14.3956C32.5627 14.3627 32.6272 14.3112 32.6471 14.256C32.6729 14.1939 32.6671 14.093 32.6225 13.9547C32.5838 13.8632 32.5475 13.8128 32.4912 13.7624C32.4431 13.7342 32.3622 13.712 32.2649 13.7073L32.2672 13.7108ZM32.0866 14.5269C32.0386 14.473 31.9776 14.3756 31.9014 14.2478C31.8205 14.1083 31.7677 14.0344 31.7196 14.0016C31.6504 13.9512 31.5859 13.9394 31.5109 13.9652C31.4347 13.991 31.3819 14.0344 31.3538 14.1083C31.3174 14.181 31.3127 14.2572 31.3432 14.3323C31.3655 14.4214 31.4335 14.4976 31.5203 14.5621C31.593 14.6102 31.6575 14.6266 31.7267 14.6231C31.7747 14.6231 31.8721 14.6031 31.9811 14.5621L32.0855 14.5257L32.0866 14.5269Z" fill="#444444"/>
<path d="M31.309 15.7099L31.3348 16.3314C31.2598 16.3502 31.2199 16.3877 31.1953 16.424C31.1648 16.4827 31.1531 16.5612 31.1789 16.6668C31.1976 16.8063 31.2352 16.9072 31.2914 16.974C31.3243 17.0162 31.37 17.035 31.4392 17.0573C31.4873 17.0608 31.5682 17.0573 31.6878 17.035L31.9762 16.9846C31.7417 16.8708 31.5987 16.6879 31.5565 16.4475C31.5142 16.1766 31.5951 15.9386 31.7992 15.7486C31.9528 15.5974 32.1662 15.5035 32.4347 15.4637C32.776 15.4074 33.0421 15.4461 33.2403 15.5727C33.4408 15.7099 33.5616 15.8917 33.6085 16.1403C33.6484 16.3783 33.5663 16.6035 33.3846 16.8028L33.6566 16.7489L33.7457 17.246L31.9446 17.5451C31.7101 17.5779 31.5283 17.592 31.4099 17.565C31.2821 17.5451 31.1836 17.5087 31.1085 17.4536C31.0323 17.3914 30.9584 17.2976 30.9068 17.1874C30.8459 17.0866 30.8107 16.933 30.7778 16.7571C30.7216 16.4111 30.738 16.1649 30.8306 16.0113C30.9232 15.8459 31.0651 15.7486 31.241 15.724C31.2551 15.7181 31.2774 15.7181 31.3102 15.7099H31.309ZM32.5602 16.0007C32.3444 16.0289 32.192 16.1016 32.1076 16.193C32.0314 16.2857 31.9868 16.4053 32.0103 16.5261C32.0349 16.6468 32.0947 16.7489 32.2119 16.8274C32.3351 16.8978 32.4887 16.9165 32.6892 16.8837C32.8909 16.8556 33.0445 16.7864 33.1301 16.6797C33.211 16.5741 33.2474 16.4698 33.2227 16.3361C33.2028 16.2106 33.1383 16.1133 33.0246 16.0429C32.9073 15.982 32.756 15.9644 32.5602 16.0007Z" fill="#444444"/>
<path d="M32.3997 19.1656L32.3024 19.6991C32.1112 19.6288 31.9611 19.5138 31.8638 19.3637C31.7595 19.2242 31.7102 19.0331 31.7102 18.8126C31.7149 18.4655 31.831 18.2005 32.0655 18.0352C32.2496 17.9015 32.4759 17.8335 32.7585 17.8335C33.0962 17.8394 33.3589 17.9367 33.5465 18.1044C33.7388 18.2838 33.8268 18.5101 33.8268 18.7774C33.8232 19.0741 33.7259 19.311 33.5184 19.4869C33.3272 19.6581 33.02 19.7437 32.6072 19.7273L32.6155 18.3928C32.4595 18.3928 32.3352 18.4327 32.2461 18.5136C32.1593 18.598 32.1194 18.7036 32.1112 18.8161C32.1112 18.9088 32.1312 18.978 32.1804 19.0342C32.2203 19.0952 32.293 19.1351 32.4009 19.1679L32.3997 19.1656ZM32.9438 19.1984C33.0939 19.1984 33.21 19.1585 33.2956 19.0812C33.3741 19.0061 33.4187 18.9135 33.4187 18.8021C33.4187 18.6848 33.3823 18.5863 33.2956 18.5218C33.2111 18.435 33.0939 18.4034 32.952 18.4034L32.9438 19.1984Z" fill="#444444"/>
<path d="M33.7599 20.4298L33.6509 20.9105L33.3824 20.8554C33.5477 21.0653 33.611 21.2963 33.5559 21.5402C33.5196 21.6657 33.475 21.7689 33.3988 21.8533C33.3284 21.9377 33.2276 21.9905 33.1103 22.0269C33.203 22.1336 33.2557 22.2473 33.2874 22.3599C33.312 22.4666 33.3261 22.5862 33.2956 22.6953C33.2628 22.8453 33.203 22.9638 33.1303 23.0447C33.0458 23.1338 32.9438 23.1924 32.8148 23.2147C32.7245 23.2288 32.5803 23.2147 32.3974 23.1784L31.1274 22.8993L31.2424 22.3763L32.3751 22.619C32.5686 22.6636 32.7069 22.6777 32.7667 22.6554C32.8512 22.619 32.9004 22.5627 32.9286 22.4619C32.945 22.3775 32.945 22.313 32.9039 22.2391C32.8793 22.1629 32.8195 22.1043 32.7468 22.055C32.6659 22.0069 32.5287 21.9577 32.3446 21.9155L31.3995 21.6997L31.5121 21.1802L32.5967 21.4312C32.7867 21.4652 32.9075 21.4839 32.9802 21.4793C33.0329 21.4734 33.0775 21.457 33.1138 21.4148C33.1502 21.3866 33.1783 21.3421 33.203 21.2694C33.2112 21.1908 33.2112 21.1122 33.1783 21.0407C33.1502 20.9645 33.0974 20.9094 33.0212 20.8554C32.945 20.8109 32.8148 20.771 32.6249 20.7218L31.6633 20.506L31.7771 19.9795L33.7599 20.4298Z" fill="#444444"/>
<path d="M31.0207 24.5763L30.7217 25.0301C30.5658 24.8894 30.4778 24.717 30.4509 24.554C30.4251 24.3676 30.4509 24.18 30.5435 23.9748C30.6924 23.6582 30.907 23.4694 31.1837 23.4154C31.41 23.3709 31.6504 23.4072 31.9014 23.5221C32.2039 23.6617 32.4103 23.8493 32.4994 24.0932C32.6085 24.3301 32.5956 24.5704 32.4888 24.8179C32.3634 25.084 32.1676 25.2623 31.9166 25.3408C31.6622 25.4077 31.3573 25.3596 30.9797 25.1814L31.5426 23.9654C31.4018 23.9009 31.2682 23.8845 31.1532 23.9255C31.0442 23.9654 30.9516 24.0393 30.907 24.1553C30.8671 24.2198 30.8624 24.2984 30.8742 24.3676C30.8988 24.4485 30.9469 24.5106 31.0196 24.5763H31.0207ZM31.5062 24.8413C31.6516 24.8941 31.7689 24.9105 31.8779 24.8777C31.9788 24.8413 32.0515 24.7686 32.096 24.676C32.1523 24.5646 32.1605 24.4614 32.1077 24.357C32.0597 24.2538 31.9741 24.1589 31.8416 24.1143L31.5062 24.8413Z" fill="#444444"/>
<path d="M28.9932 26.6224L29.2957 26.1886L30.1505 26.7678C30.3241 26.8933 30.4519 26.9637 30.5164 26.9824C30.5891 26.9941 30.6501 26.9941 30.7099 26.9789C30.7626 26.9543 30.8107 26.9144 30.8517 26.8511C30.908 26.776 30.9362 26.694 30.9362 26.6025C30.9362 26.511 30.908 26.4348 30.8517 26.3668C30.799 26.2941 30.6817 26.1933 30.5 26.0643L29.7401 25.5436L30.0391 25.1074L31.7078 26.246L31.4252 26.6658L31.1813 26.4923C31.2704 26.769 31.234 27.0117 31.0816 27.2392C31.0206 27.3365 30.9397 27.4151 30.8435 27.4655C30.7591 27.5242 30.6735 27.55 30.5891 27.5558C30.5105 27.5664 30.4261 27.55 30.3381 27.5113C30.2631 27.4784 30.154 27.4198 30.0274 27.3354L28.9932 26.6224Z" fill="#444444"/>
<path d="M29.5583 29.0015L29.2335 28.7107L29.4856 28.4457L28.8841 27.891C28.7633 27.7714 28.6859 27.7093 28.6613 27.7046C28.6331 27.6905 28.6132 27.68 28.5804 27.6905C28.5475 27.7046 28.5276 27.7093 28.4959 27.7444C28.4678 27.7702 28.4338 27.8418 28.3904 27.9309L28.0515 27.6905C28.0984 27.5557 28.1688 27.4396 28.286 27.3223C28.3447 27.2543 28.4115 27.1968 28.4959 27.1605C28.5686 27.1277 28.6331 27.1159 28.6976 27.1206C28.7621 27.1288 28.8313 27.157 28.9075 27.2109C28.9556 27.2367 29.0588 27.3164 29.2007 27.449L29.8491 28.0423L30.0109 27.8605L30.324 28.1537L30.1587 28.3272L30.4636 28.6063L30.324 29.2137L29.7928 28.7306L29.5583 28.9991V29.0015Z" fill="#444444"/>
<path d="M11.7417 22.2838V15.2036H13.1711V22.2838H11.7417Z" fill="#444444"/>
<path d="M14.1654 19.9796L15.5549 19.8424C15.6394 20.3173 15.8129 20.6586 16.0638 20.8743C16.3265 21.0901 16.6736 21.1933 17.0981 21.1933C17.5706 21.1933 17.9142 21.0983 18.144 20.9107C18.3844 20.7184 18.4935 20.4862 18.4935 20.2282C18.4935 20.0629 18.4489 19.9198 18.3481 19.7944C18.2472 19.6771 18.0795 19.5762 17.8368 19.4918C17.6598 19.4273 17.2892 19.3323 16.69 19.1811C15.9231 18.9935 15.3861 18.7531 15.0765 18.4869C14.6462 18.0905 14.4175 17.6192 14.4175 17.0587C14.4175 16.701 14.5289 16.3621 14.7341 16.0443C14.9358 15.7336 15.2289 15.4932 15.6065 15.342C15.9982 15.1661 16.4649 15.084 17.0043 15.084C17.8966 15.084 18.5591 15.2775 19.0071 15.6715C19.4621 16.0572 19.7001 16.572 19.7224 17.2322L18.2941 17.2908C18.2332 16.9308 18.0983 16.6647 17.9001 16.5028C17.6938 16.3469 17.3936 16.2671 16.9949 16.2671C16.5751 16.2671 16.2491 16.3516 16.0169 16.5275C15.8598 16.6365 15.7824 16.7737 15.7824 16.9719C15.7824 17.1278 15.8586 17.2732 15.9958 17.3917C16.1834 17.5453 16.6138 17.7048 17.315 17.8607C18.0045 18.0284 18.5287 18.2019 18.8558 18.372C19.1865 18.5479 19.4515 18.7894 19.6391 19.0955C19.8291 19.4027 19.9217 19.7803 19.9217 20.22C19.9217 20.6316 19.808 21.008 19.5864 21.3633C19.3495 21.7186 19.0329 21.9731 18.6272 22.1513C18.2132 22.3272 17.7043 22.4116 17.0864 22.4116C16.1917 22.4116 15.5045 22.2017 15.0226 21.796C14.55 21.3785 14.2592 20.7747 14.1619 19.9831L14.1654 19.9796Z" fill="#444444"/>
<path d="M20.8376 18.7882C20.8376 18.067 20.9431 17.4631 21.1601 16.9741C21.3219 16.6106 21.5423 16.2858 21.8144 16.0009C22.0935 15.7101 22.4042 15.5037 22.7372 15.3665C23.1793 15.1742 23.6823 15.0815 24.2534 15.0815C25.2994 15.0815 26.1354 15.4064 26.7581 16.0513C27.3878 16.7021 27.7032 17.6038 27.7032 18.7518C27.7032 19.8998 27.3878 20.7957 26.7663 21.4312C26.1448 22.082 25.3158 22.4021 24.2862 22.4021C23.2567 22.4021 22.3843 22.0808 21.7698 21.4394C21.1436 20.7957 20.8364 19.9092 20.8364 18.7882H20.8376ZM22.3127 18.7354C22.3127 19.5386 22.4945 20.1484 22.8639 20.5647C23.2368 20.9727 23.7081 21.1803 24.2757 21.1803C24.8432 21.1803 25.3099 20.9786 25.6816 20.5705C26.0475 20.1519 26.2234 19.5386 26.2234 18.7213C26.2234 17.904 26.0475 17.2978 25.6899 16.9038C25.3381 16.5016 24.8679 16.2999 24.2757 16.2999C23.6835 16.2999 23.2133 16.5098 22.8545 16.9073C22.4875 17.313 22.3127 17.9228 22.3127 18.7354Z" fill="#444444"/>
<path d="M15.276 32.7036V33.2993H13.0059C13.0281 33.0859 13.1044 32.8678 13.2275 32.659C13.3412 32.4597 13.5875 32.1841 13.951 31.8558C14.2453 31.5849 14.4177 31.3997 14.4845 31.3C14.5772 31.1663 14.6217 31.0373 14.6217 30.9107C14.6217 30.7571 14.5818 30.648 14.5045 30.5718C14.4212 30.4967 14.3227 30.4651 14.1878 30.4651C14.053 30.4651 13.9416 30.4979 13.863 30.58C13.7868 30.6562 13.7376 30.7981 13.7258 30.9857L13.0774 30.9212C13.1196 30.5694 13.2451 30.3138 13.4432 30.1579C13.6496 29.996 13.8959 29.9233 14.2066 29.9233C14.5338 29.9233 14.7964 30.0054 14.9817 30.1942C15.1728 30.3736 15.276 30.5988 15.276 30.8603C15.276 31.0115 15.2455 31.1569 15.1893 31.2883C15.1412 31.4337 15.0474 31.5732 14.9325 31.7221C14.8562 31.8277 14.7097 31.9672 14.5045 32.156C14.3051 32.3377 14.1714 32.4726 14.1187 32.53C14.0659 32.591 14.0213 32.6555 13.9815 32.7036H15.276Z" fill="#444444"/>
<path d="M15.7087 30.5789V29.9785H17.9179V30.4487C17.7362 30.627 17.5497 30.8826 17.3609 31.2238C17.1686 31.5592 17.0256 31.9121 16.9294 32.2944C16.8321 32.6743 16.7875 33.0109 16.7875 33.2982H16.1637C16.1719 32.8397 16.2692 32.3589 16.444 31.8805C16.6339 31.3974 16.8802 30.9717 17.1733 30.5777H15.7087V30.5789Z" fill="#444444"/>
<path d="M19.4143 29.9224C19.7438 29.9224 19.9982 30.0314 20.1882 30.2695C20.4086 30.5427 20.5177 31 20.5177 31.6473C20.5177 32.2946 20.4004 32.7413 20.18 33.0227C19.9982 33.2514 19.7438 33.364 19.4143 33.364C19.0848 33.364 18.8268 33.2432 18.6263 32.984C18.4246 32.7296 18.3237 32.2793 18.3237 31.6367C18.3237 30.9941 18.4328 30.5415 18.6591 30.2695C18.835 30.0314 19.0894 29.9224 19.4143 29.9224ZM19.4143 30.4641C19.3416 30.4641 19.2747 30.4782 19.2102 30.5333C19.1457 30.5884 19.0965 30.6705 19.0648 30.7995C19.0238 30.973 19.0038 31.2439 19.0038 31.6484C19.0038 32.053 19.0238 32.3145 19.0601 32.4599C19.0965 32.6053 19.1528 32.7038 19.2137 32.753C19.2747 32.7976 19.3416 32.8304 19.4131 32.8304C19.4975 32.8304 19.5702 32.7976 19.6288 32.753C19.6898 32.705 19.7426 32.6194 19.7707 32.4869C19.8188 32.3192 19.8329 32.0448 19.8329 31.6484C19.8329 31.2521 19.8188 30.9754 19.7801 30.8323C19.7414 30.6846 19.6898 30.5884 19.6288 30.5333C19.5702 30.4782 19.4975 30.4641 19.4131 30.4641H19.4143Z" fill="#444444"/>
<path d="M22.0374 29.9224C22.368 29.9224 22.6213 30.0314 22.8066 30.2695C23.0223 30.5427 23.1361 31 23.1361 31.6473C23.1361 32.2946 23.0223 32.7413 22.7984 33.0227C22.6201 33.2514 22.368 33.364 22.0374 33.364C21.7067 33.364 21.4522 33.2432 21.2494 32.984C21.0477 32.7296 20.9421 32.2793 20.9421 31.6367C20.9421 30.9941 21.0512 30.5415 21.2693 30.2695C21.4546 30.0314 21.7114 29.9224 22.0362 29.9224H22.0374ZM22.0374 30.4641C21.9647 30.4641 21.892 30.4782 21.8251 30.5333C21.7712 30.5884 21.7196 30.6705 21.6856 30.7995C21.6434 30.973 21.6187 31.2439 21.6187 31.6484C21.6187 32.053 21.6434 32.3145 21.675 32.4599C21.7196 32.6053 21.77 32.7038 21.8239 32.753C21.8908 32.7976 21.9635 32.8304 22.0362 32.8304C22.1124 32.8304 22.1898 32.7976 22.2543 32.753C22.3106 32.705 22.3551 32.6194 22.3833 32.4869C22.4314 32.3192 22.456 32.0448 22.456 31.6484C22.456 31.2521 22.436 30.9754 22.3997 30.8323C22.3551 30.6846 22.3071 30.5884 22.2508 30.5333C22.1898 30.4782 22.1136 30.4641 22.0362 30.4641H22.0374Z" fill="#444444"/>
<path d="M25.2161 33.2993H24.5653V30.872C24.3355 31.0936 24.0564 31.2519 23.7351 31.3645V30.7723C23.911 30.7172 24.0845 30.6152 24.2898 30.4639C24.4879 30.3126 24.6216 30.125 24.7002 29.9233H25.2149V33.3005L25.2161 33.2993Z" fill="#444444"/>
</svg>
