<svg width="47" height="24" viewBox="0 0 47 24" fill="none" xmlns="http://www.w3.org/2000/svg">
<g clip-path="url(#clip0_1106_138923)">
<path d="M36.1563 24.0022H10.8424C10.6924 24.0022 10.5715 23.8806 10.5715 23.7297C10.5715 23.5789 10.6924 23.4573 10.8424 23.4573H36.1563C41.836 23.4573 46.4569 18.8084 46.4569 13.0944C46.4569 7.38029 41.836 2.73145 36.1563 2.73145H16.265C16.1151 2.73145 15.9942 2.60984 15.9942 2.45899C15.9942 2.30813 16.1151 2.18652 16.265 2.18652H36.1578C42.1374 2.18652 47.0016 7.08012 47.0016 13.0959C47.0016 19.1117 42.1374 24.0053 36.1578 24.0053" fill="#231F20"/>
<path d="M11.4743 10.5022C11.5523 9.27229 12.5546 8.29635 13.7756 8.29635C14.9966 8.29635 15.9973 9.27229 16.0768 10.5022H11.4743ZM13.4145 15.9993C13.0886 15.0341 12.3143 14.5261 11.6625 14.0982C10.9388 13.624 10.6343 13.3777 10.622 12.9221C10.6266 12.2971 11.1193 11.7876 11.7252 11.7876H15.7448L13.4145 15.9993ZM10.3038 19.666C10.3267 19.6706 10.5868 19.7137 10.8454 19.7152C11.0933 19.7152 11.3412 19.6768 11.3856 19.6644L10.8454 20.6404L10.3038 19.666ZM9.6489 11.7876C9.47753 12.117 9.37807 12.4926 9.37042 12.8913C9.37042 12.9036 9.37042 12.9175 9.37042 12.9298V12.9329C9.39031 14.1397 10.2762 14.7216 10.9923 15.1911C11.8415 15.7483 12.322 16.107 12.322 17.0229C12.322 17.9388 11.612 18.4484 10.7399 18.4484C10.1798 18.4484 9.46988 18.1451 9.18681 17.6464L8.93587 17.2076L5.91852 11.7891H9.6489V11.7876ZM7.96885 8.29635C9.18987 8.29635 10.1921 9.27229 10.2701 10.5022H5.67065C5.74868 9.27229 6.7509 8.29635 7.97038 8.29635M13.7756 7.06641C12.5913 7.06641 11.5233 7.65906 10.8714 8.66271C10.2212 7.65906 9.15315 7.06641 7.96885 7.06641C6.00727 7.06641 4.41138 8.67811 4.41138 10.6577C4.41138 10.6577 4.41138 10.6762 4.41138 11.0225C4.41138 11.3689 4.45116 11.6783 4.72352 12.1509C4.99587 12.6235 10.847 22.777 10.847 22.777C10.847 22.777 16.6567 12.6866 16.9444 12.1509C17.2321 11.6152 17.278 11.3858 17.278 11.0225V10.6577C17.278 8.67811 15.7081 7.06641 13.7771 7.06641" fill="#130C0E"/>
<path d="M8.64034 1.90921C8.2517 1.90921 7.87835 2.03697 7.59987 2.22323V0.00195312H6.72925V6.01619H7.2403L7.38107 5.69293C7.72228 5.95 8.11858 6.11009 8.64034 6.11009C9.77261 6.11009 10.1919 5.32502 10.1919 4.00888C10.1919 2.69274 9.77261 1.90921 8.64034 1.90921ZM8.43837 2.67119C9.20036 2.67119 9.31664 3.27153 9.31664 4.00888C9.31664 4.74623 9.20036 5.35119 8.43837 5.35119C8.0283 5.35119 7.75594 5.20495 7.6014 5.11721V2.90363C7.75594 2.81434 8.0283 2.67119 8.43837 2.67119ZM11.292 3.1607C11.292 2.80049 11.5797 2.66349 12.0387 2.66349C12.5268 2.66349 12.894 2.75893 13.226 2.88823V2.10932C12.9231 1.97386 12.5497 1.90921 12.0219 1.90921C10.8819 1.90921 10.4459 2.49416 10.4459 3.18379C10.4459 3.87342 10.7335 4.24902 11.9056 4.35523C12.4258 4.40141 12.5497 4.55381 12.5497 4.8509C12.5497 5.20342 12.2468 5.34965 11.6256 5.34965C11.1359 5.34965 10.7243 5.22035 10.4688 5.12491V5.89458C10.732 6.00542 11.214 6.11009 11.751 6.11009C12.9935 6.11009 13.4051 5.50975 13.4051 4.82012C13.4051 4.07507 13.1021 3.71333 11.9377 3.61019C11.4328 3.56247 11.292 3.44086 11.292 3.1607ZM14.7852 6.07161C14.8785 6.07161 14.9566 6.05468 14.9566 6.05468V5.32656C14.7072 5.32656 14.6307 5.24498 14.6307 5.02177V2.00619H13.7616V5.02947C13.7616 5.7191 14.0814 6.07161 14.7867 6.07161M13.6285 0.817808C13.6285 1.13953 13.884 1.40276 14.1946 1.40276C14.5052 1.40276 14.7623 1.13953 14.7623 0.817808C14.7623 0.496084 14.5052 0.232856 14.1946 0.232856C13.884 0.232856 13.6285 0.496084 13.6285 0.817808Z" fill="#130C0E"/>
<path d="M10.8438 24.0024C4.86418 24.0024 0 19.1088 0 13.0931C0 9.21697 1.97536 5.71495 5.2819 3.72611C5.41042 3.64914 5.5772 3.69071 5.65371 3.82001C5.73021 3.94932 5.6889 4.11711 5.56037 4.19407C2.41755 6.08439 0.541654 9.41093 0.541654 13.0931C0.541654 18.8071 5.16255 23.456 10.8423 23.456C16.522 23.456 21.1429 18.8071 21.1429 13.0931C21.1429 9.41093 19.267 6.08439 16.1242 4.19407C15.9956 4.11711 15.9543 3.94932 16.0308 3.82001C16.1073 3.69071 16.2741 3.64914 16.4026 3.72611C19.7107 5.71649 21.6845 9.21851 21.6845 13.0931C21.6845 19.1088 16.8204 24.0024 10.8423 24.0024" fill="#130C0E"/>
<path d="M24.7829 19.7567C24.6315 19.826 24.4188 19.8737 24.2214 19.8737C23.9873 19.8737 23.767 19.8075 23.6292 19.6212C23.513 19.4658 23.4609 19.241 23.4609 18.9532C23.4609 18.6207 23.5359 18.3759 23.6874 18.222C23.8358 18.0727 24.0393 18.0342 24.2627 18.0342C24.4203 18.0342 24.5794 18.0542 24.7171 18.0819L24.6927 18.3728C24.5856 18.3559 24.4341 18.3451 24.2964 18.3451C24.1587 18.3451 24.0179 18.3667 23.9383 18.4621C23.845 18.5699 23.8175 18.7423 23.8175 18.9562C23.8175 19.1364 23.8373 19.2887 23.9001 19.3965C23.9766 19.5243 24.1097 19.5658 24.2551 19.5658C24.4004 19.5658 24.5611 19.5243 24.6927 19.4827L24.7829 19.7598V19.7567Z" fill="black"/>
<path d="M24.9512 19.8442V18.0586H26.0528V18.3634H25.2985V18.779H25.9243V19.0776H25.2985V19.5379H26.0528V19.8427H24.9512V19.8442Z" fill="black"/>
<path d="M27.1791 19.8443C27.0521 19.6088 26.9419 19.3871 26.8379 19.1547C26.7614 19.1547 26.6558 19.1516 26.59 19.147V19.8458H26.2427V18.0725C26.411 18.0525 26.6313 18.0371 26.8027 18.0371C27.1669 18.0371 27.505 18.1264 27.505 18.5882C27.505 18.8376 27.4025 19.0208 27.1669 19.11C27.2694 19.3209 27.4254 19.5919 27.58 19.8474H27.1806L27.1791 19.8443ZM26.59 18.8945C26.7476 18.8945 26.8731 18.8945 26.9649 18.8668C27.0919 18.8314 27.1516 18.7529 27.1516 18.5928C27.1516 18.3788 27.0001 18.3404 26.8287 18.3404C26.7491 18.3404 26.6635 18.3434 26.5885 18.3481V18.8945H26.59Z" fill="black"/>
<path d="M28.0404 19.8442V18.3634H27.5615V18.0586H28.8667V18.3634H28.3878V19.8442H28.0404Z" fill="black"/>
<path d="M29 19.8442V18.0586H29.3473V19.8442H29Z" fill="black"/>
<path d="M29.6348 19.8442V18.0586H30.761V18.3634H29.9806V18.8098H30.6248V19.1084H29.9806V19.8427H29.6333L29.6348 19.8442Z" fill="black"/>
<path d="M30.9294 19.8442V18.0586H31.2768V19.8442H30.9294Z" fill="black"/>
<path d="M31.5627 19.8442V18.0586H32.6644V18.3634H31.9101V18.779H32.5359V19.0776H31.9101V19.5379H32.6644V19.8427H31.5627V19.8442Z" fill="black"/>
<path d="M32.8572 18.0819C33.0393 18.0542 33.2458 18.0342 33.4111 18.0342C34.0109 18.0342 34.2205 18.3497 34.2205 18.9486C34.2205 19.5474 34.0109 19.866 33.4111 19.866C33.2458 19.866 33.0393 19.8583 32.8572 19.8383V18.0804V18.0819ZM33.2045 19.5566C33.2795 19.5628 33.3177 19.5628 33.3805 19.5628C33.7722 19.5628 33.8686 19.3934 33.8686 18.9501C33.8686 18.5314 33.7722 18.3405 33.3805 18.3405C33.3177 18.3405 33.2627 18.3436 33.2045 18.3482V19.5566Z" fill="black"/>
<path d="M25.6521 15.043L25.5496 15.24C25.4868 15.2277 25.4164 15.2062 25.3369 15.1785V16.1051H24.3041L24.4096 16.2283C24.1786 16.3345 23.9078 16.4146 23.5941 16.4654L23.4885 16.2683C23.7211 16.2406 23.9445 16.1867 24.1572 16.1067H23.7976V15.1754H24.2597L24.1664 15.0399C24.4525 14.9676 24.6652 14.8398 24.8059 14.6566L25.0278 14.7059C25.0033 14.7505 24.9865 14.7782 24.9743 14.789C25.1472 14.9014 25.3736 14.9876 25.6521 15.0445V15.043ZM24.2199 14.9737H23.5069V14.7721H24.2199V14.9737ZM24.1985 14.5827H23.5406V14.3857H24.1985V14.5827ZM25.1165 15.4355V15.3493H24.0256V15.4355H25.1165ZM25.1165 15.6864V15.5956H24.0256V15.6864H25.1165ZM25.1165 15.942V15.8465H24.0256V15.942H25.1165ZM25.6092 14.6104C25.5327 14.7197 25.4624 14.8106 25.395 14.886L25.2099 14.7751C25.2298 14.7505 25.2741 14.6966 25.3415 14.6104H24.5703C24.4953 14.6966 24.4234 14.769 24.3546 14.8275L24.1878 14.6843C24.3148 14.592 24.4357 14.4534 24.5519 14.2656L24.7524 14.3349C24.7447 14.3626 24.7294 14.3919 24.7065 14.4211H25.6077V14.6104H25.6092ZM25.3124 15.1738C25.1487 15.12 24.988 15.0415 24.835 14.9368C24.7325 15.0291 24.5994 15.1092 24.4372 15.1738H25.3139H25.3124ZM25.6368 16.2837L25.519 16.4731C25.3048 16.4038 25.0661 16.3545 24.8013 16.3222L24.913 16.1375C25.1716 16.1606 25.4119 16.2083 25.6353 16.2837H25.6368Z" fill="black"/>
<path d="M26.7416 14.7001H25.9475V14.5016H26.2612C26.2489 14.4646 26.2229 14.4123 26.1831 14.3492L26.3989 14.2676C26.4417 14.3492 26.4785 14.4261 26.506 14.5016H26.7416V14.7001ZM26.6881 15.0665H26.0072V14.8695H26.6881V15.0665ZM26.6881 15.4252H26.0072V15.2297H26.6881V15.4252ZM26.6911 16.3857H26.4754V16.2749H26.2183V16.4442H26.0072V15.5899H26.6911V16.3842V16.3857ZM26.4754 16.0732V15.7962H26.2183V16.0732H26.4754ZM28.108 15.8685C28.0973 15.9963 28.0743 16.1133 28.0422 16.2195C28.0086 16.3257 27.9764 16.3919 27.9473 16.418C27.9167 16.4442 27.8816 16.4581 27.8418 16.4581C27.7928 16.4581 27.7515 16.4396 27.7163 16.4027C27.6811 16.3657 27.6474 16.2549 27.6153 16.0732C27.5832 15.8901 27.5664 15.7269 27.5664 15.5806V14.5539H27.2359V15.2174H27.499V15.4298H27.2359V16.4488H27.0262V15.4298H26.7998V15.2174H27.0262V14.5539H26.8273V14.3476H27.7775V15.6314C27.7775 15.8223 27.8035 16.007 27.8571 16.1841C27.8877 16.0717 27.906 15.927 27.9152 15.7515L28.1111 15.8716L28.108 15.8685Z" fill="black"/>
<path d="M30.533 15.3865H30.0541C29.9638 15.6113 29.8613 15.7898 29.7511 15.9207C30.0678 16.0531 30.3264 16.1731 30.5299 16.2824L30.4014 16.4625C30.1872 16.3471 29.9194 16.2224 29.5981 16.0869C29.3472 16.2886 28.9738 16.4102 28.4765 16.4548L28.397 16.2455C28.8361 16.2024 29.1544 16.1193 29.3502 15.9961C29.136 15.9145 28.9157 15.8406 28.6892 15.776C28.7826 15.6528 28.8744 15.5235 28.9646 15.385H28.4046V15.1787H29.0962C29.1712 15.0602 29.2462 14.9324 29.3212 14.7939L29.5537 14.8293C29.4803 14.9694 29.4145 15.0864 29.3579 15.1787H29.8965C29.9194 15.1141 29.9378 15.0571 29.95 15.0079L30.1658 15.0309C30.1596 15.074 30.1459 15.1233 30.126 15.1787H30.5345V15.385L30.533 15.3865ZM30.4672 15.0171H30.2499V14.7339H28.6923V15.0202H28.4674V14.5245H29.3502C29.3227 14.4537 29.289 14.389 29.2477 14.329L29.468 14.2705C29.517 14.3382 29.5583 14.4229 29.5935 14.5245H30.4672V15.0171ZM29.8138 15.3865H29.2293C29.1834 15.465 29.1253 15.5559 29.0519 15.6621C29.2033 15.7144 29.3671 15.7729 29.54 15.8406C29.644 15.7237 29.7343 15.5728 29.8138 15.3865Z" fill="black"/>
<path d="M32.9995 14.998L32.8955 15.2027C32.7746 15.1535 32.6935 15.1196 32.6522 15.1011V15.2674H32.0294V15.6107H32.6323V15.8231H32.0294V16.1802H32.9261V16.3896H30.8987V16.1802H31.8045V15.8231H31.1879V15.6107H31.8045V15.2674H31.1787V15.0827C31.1053 15.1165 31.0226 15.1504 30.9308 15.1858L30.8298 14.9842C31.1756 14.8548 31.4403 14.7086 31.6255 14.5424H31.4312V14.333H32.034C32.1947 14.6024 32.516 14.8241 32.998 14.998H32.9995ZM32.5512 15.0519C32.2773 14.9149 32.0646 14.7533 31.9162 14.567C31.7693 14.7394 31.5429 14.901 31.2384 15.0519H32.5512Z" fill="black"/>
<path d="M34.3384 14.6166H33.6912C33.6178 14.7028 33.526 14.7875 33.4204 14.8706L33.2781 14.692C33.4663 14.5658 33.5902 14.4257 33.6499 14.2733L33.8718 14.3318C33.861 14.3626 33.8442 14.3949 33.8228 14.4303H34.3384V14.6151V14.6166ZM35.3697 15.3478H35.154V15.1107H33.5657V15.3478H33.35V14.9291H34.2329C34.2237 14.906 34.2038 14.869 34.1732 14.8183L34.4226 14.7782C34.444 14.8106 34.4716 14.8614 34.5022 14.9291H35.3712V15.3478H35.3697ZM35.1463 16.3407H33.8457V16.4392H33.6331V15.2354H35.0652V15.7049H33.8457V15.8358H35.1463V16.3391V16.3407ZM34.1135 14.829L33.8748 14.8737C33.8534 14.8275 33.8182 14.769 33.7723 14.7013L34.0049 14.6535C34.0355 14.6889 34.0722 14.749 34.115 14.8306L34.1135 14.829ZM34.848 15.5448V15.4017H33.8457V15.5448H34.848ZM34.9275 16.1729V16.0005H33.8457V16.1729H34.9275ZM35.4294 14.6166H34.6751C34.6368 14.6751 34.5909 14.732 34.5358 14.7905L34.3369 14.6843C34.4716 14.5412 34.5664 14.4011 34.623 14.2656L34.8449 14.3287C34.8235 14.3718 34.8066 14.4057 34.7913 14.4303H35.4294V14.6151V14.6166ZM35.102 14.8429L34.8663 14.8798C34.848 14.8229 34.8158 14.7582 34.773 14.6874L35.0101 14.6612C35.0423 14.7136 35.0729 14.7736 35.1004 14.8429H35.102Z" fill="black"/>
<path d="M36.4805 15.9175C36.2938 16.0345 36.0658 16.1515 35.7996 16.2715L35.7246 16.0622C35.7828 16.0391 35.8807 15.9945 36.0169 15.9283V15.3156H35.7812V15.1109H36.0169V14.6244H35.7445V14.4274H36.4774V14.6244H36.228V15.1109H36.4407V15.3156H36.228V15.8159C36.3122 15.7805 36.3948 15.7374 36.4759 15.6866L36.4835 15.9175H36.4805ZM37.8729 16.387H36.4713V16.1869H37.0726V15.9437H36.557V15.7482H37.0726V15.5357H36.5723V14.3535H37.7811V15.5357H37.2868V15.7482H37.8147V15.9437H37.2868V16.1869H37.8744V16.387H37.8729ZM37.0726 14.8461V14.5521H36.7865V14.8461H37.0726ZM37.0726 15.3433V15.0231H36.7865V15.3433H37.0726ZM37.5668 14.8461V14.5521H37.2853V14.8461H37.5668ZM37.5668 15.3433V15.0231H37.2853V15.3433H37.5668Z" fill="black"/>
<path d="M23.6262 9.34325V7.06348H23.9644V9.34325H23.6262Z" fill="black"/>
<path d="M24.4357 9.02486C24.5658 9.04641 24.7739 9.07412 24.9712 9.07412C25.1686 9.07412 25.3507 9.04641 25.4532 8.94635C25.5129 8.88939 25.5481 8.81243 25.5481 8.71237C25.5481 8.48916 25.4104 8.41527 25.0202 8.29828C24.63 8.18437 24.3806 8.02274 24.3806 7.63636C24.3806 7.44548 24.4617 7.29001 24.5994 7.18379C24.754 7.06373 24.9513 7.02832 25.1594 7.02832C25.3675 7.02832 25.5879 7.06065 25.7852 7.09913L25.7424 7.38237C25.6093 7.35774 25.4043 7.33311 25.2176 7.33311C25.063 7.33311 24.9146 7.35004 24.8274 7.4147C24.757 7.46704 24.7218 7.53477 24.7218 7.62713C24.7218 7.86111 24.9008 7.9273 25.2742 8.04121C25.6399 8.15512 25.8893 8.3106 25.8893 8.71083C25.8893 8.92326 25.8082 9.09721 25.6613 9.2142C25.5022 9.34196 25.2773 9.38045 25.0386 9.38045C24.8167 9.38045 24.5887 9.34812 24.3944 9.31272L24.4372 9.0264L24.4357 9.02486Z" fill="black"/>
<path d="M26.1602 8.20284C26.1602 7.43163 26.4524 7.02832 27.1379 7.02832C27.8234 7.02832 28.1156 7.43163 28.1156 8.20284C28.1156 8.97406 27.8234 9.37737 27.1379 9.37737C26.4524 9.37737 26.1602 8.97406 26.1602 8.20284ZM27.7713 8.20284C27.7713 7.60096 27.5923 7.33157 27.1379 7.33157C26.6834 7.33157 26.5044 7.60096 26.5044 8.20284C26.5044 8.80473 26.6834 9.07412 27.1379 9.07412C27.5923 9.07412 27.7713 8.80473 27.7713 8.20284Z" fill="black"/>
<path d="M28.3098 9.34325L29.1896 7.06348H29.4635L28.5914 9.34325H28.3098Z" fill="black"/>
<path d="M29.7771 9.34325V7.06348H30.1153V9.34325H29.7771Z" fill="black"/>
<path d="M30.6111 9.34325V7.06348H31.9591V7.36365H30.9492V8.01787H31.7755V8.31497H30.9492V9.04H31.9591V9.34017H30.6111V9.34325Z" fill="black"/>
<path d="M33.8732 9.20455C33.6789 9.30306 33.405 9.37849 33.1479 9.37849C32.8557 9.37849 32.5772 9.29075 32.4089 9.05215C32.2681 8.85819 32.1978 8.57495 32.1978 8.20243C32.1978 7.80528 32.2865 7.51588 32.4472 7.3173C32.6338 7.0941 32.9077 7.02637 33.2076 7.02637C33.4081 7.02637 33.6192 7.05408 33.7952 7.0941L33.763 7.38042C33.6223 7.35271 33.4111 7.33116 33.2275 7.33116C33.0133 7.33116 32.8159 7.37734 32.6966 7.53589C32.5879 7.68521 32.542 7.9038 32.542 8.20089C32.542 8.47643 32.5772 8.68886 32.6721 8.83818C32.7807 9.01213 32.9643 9.07216 33.1617 9.07216C33.3805 9.07216 33.5917 9.00905 33.7768 8.93362L33.8717 9.20301L33.8732 9.20455Z" fill="black"/>
<path d="M23.5834 13.0003V12.7309C24.2092 12.1829 24.656 11.7534 24.656 11.3748C24.656 11.0915 24.4448 10.9884 24.2092 10.9884C24.0118 10.9884 23.7838 11.0515 23.6354 11.1115L23.5405 10.8421C23.7165 10.7575 23.9797 10.6836 24.2337 10.6836C24.6881 10.6836 25.0002 10.913 25.0002 11.3624C25.0002 11.8581 24.5045 12.2861 24.0225 12.6971H25.0324V12.9988H23.5834V13.0003Z" fill="black"/>
<path d="M25.6566 13.0005C25.8539 12.2354 26.0957 11.6689 26.4553 11.0178H25.323V10.7207H26.8041V11.0009C26.4461 11.6489 26.2028 12.2154 26.0192 13.0005H25.6566Z" fill="black"/>
<path d="M27.095 11.861C27.095 11.096 27.2541 10.6865 27.9151 10.6865C28.5761 10.6865 28.7306 11.0975 28.7306 11.861C28.7306 12.6246 28.5715 13.0356 27.9151 13.0356C27.2587 13.0356 27.095 12.6215 27.095 11.861ZM28.394 11.861C28.394 11.3192 28.3619 10.9836 27.9151 10.9836C27.4683 10.9836 27.4331 11.3192 27.4331 11.861C27.4331 12.4029 27.4607 12.7431 27.9151 12.7431C28.3695 12.7431 28.394 12.3998 28.394 11.861Z" fill="black"/>
<path d="M29.0872 11.861C29.0872 11.096 29.2463 10.6865 29.9073 10.6865C30.5683 10.6865 30.7228 11.0975 30.7228 11.861C30.7228 12.6246 30.5637 13.0356 29.9073 13.0356C29.2509 13.0356 29.0872 12.6215 29.0872 11.861ZM30.3862 11.861C30.3862 11.3192 30.3541 10.9836 29.9073 10.9836C29.4605 10.9836 29.4253 11.3192 29.4253 11.861C29.4253 12.4029 29.4529 12.7431 29.9073 12.7431C30.3617 12.7431 30.3862 12.3998 30.3862 11.861Z" fill="black"/>
<path d="M31.4283 13.0001V11.0636L30.957 11.2437L30.8545 11.0128L31.4604 10.7188H31.7664V12.9985H31.4283V13.0001Z" fill="black"/>
</g>
<defs>
<clipPath id="clip0_1106_138923">
<rect width="47" height="24" fill="white" transform="translate(0 0.00195312)"/>
</clipPath>
</defs>
</svg>
