<svg width="90" height="26" viewBox="0 0 90 26" fill="none" xmlns="http://www.w3.org/2000/svg">
<path d="M90 0.533767V25.0659H85.1362V14.8011H73.9395V25.0659H69.0908V0.533767H73.9395V10.9128H85.1362V0.533767H90ZM35.9569 0.533767H33.886L23.3562 25.0659H28.4456L35.8365 7.34715H36.0822L43.403 25.0659H48.5576L38.0278 0.533767H35.9569ZM47.8105 19.6927L47.8606 19.8168C48.2066 20.7107 50.2223 25.4036 56.8461 25.6569C67.4662 26.0591 67.2756 19.2706 67.2756 17.8751C67.2041 16.7505 66.8328 15.6648 66.1994 14.7288C65.5661 13.7927 64.6934 13.0397 63.6704 12.5466C59.6891 10.4608 52.9099 10.7141 52.9099 6.69163C52.9099 5.46006 54.0181 3.71202 57.3024 3.67229C60.4864 3.6127 62.1511 5.6587 62.3767 6.82075L66.007 5.76299C65.3652 4.3576 64.0013 0.429481 57.1319 0.429481C55.9109 0.400133 54.6932 0.567861 53.5267 0.926083C49.2646 2.3563 48.5125 5.61401 48.5125 7.2379C48.5676 16.6336 62.6575 14.1903 62.4971 19.0471C62.4419 20.8249 60.6819 22.2353 57.1469 22.0813C53.4815 21.9324 52.228 19.7026 51.6313 18.4015L47.8105 19.6927ZM12.6859 4.07951C15.87 4.01495 17.7603 5.64877 18.1063 6.73633L21.9923 5.68353C21.3455 4.29801 19.1142 0.613225 12.8213 0.325195C0.897543 0.325195 0 11.4044 0 12.5267C0 24.1919 8.74979 25.488 12.1544 25.642C15.4982 25.7576 18.8453 25.5481 22.1478 25.0163V10.9128H9.8479V14.8111H17.5297C17.5488 14.811 17.5672 14.8182 17.5812 14.8311C17.5951 14.844 17.6036 14.8617 17.6049 14.8806V21.7188C17.6029 21.7394 17.5953 21.759 17.5829 21.7756C17.5706 21.7922 17.5539 21.8052 17.5347 21.8132C15.9993 22.066 14.4416 22.1609 12.8865 22.0962C11.8085 22.0615 5.05934 21.7933 5.05934 13.0382C5.05934 7.40674 7.89738 4.12917 12.6859 4.09937" fill="white"/>
</svg>
