<svg width="90" height="26" viewBox="0 0 90 26" fill="none" xmlns="http://www.w3.org/2000/svg">
<path d="M90 0.534256V25.0664H85.1362V14.8016H73.9395V25.0664H69.0908V0.534256H73.9395V10.9132H85.1362V0.534256H90ZM35.9569 0.534256H33.886L23.3562 25.0664H28.4456L35.8365 7.34764H36.0822L43.403 25.0664H48.5576L38.0278 0.534256H35.9569ZM47.8105 19.6932L47.8606 19.8173C48.2066 20.7112 50.2223 25.4041 56.8461 25.6574C67.4662 26.0596 67.2756 19.2711 67.2756 17.8756C67.2041 16.751 66.8328 15.6653 66.1994 14.7292C65.5661 13.7932 64.6934 13.0402 63.6704 12.5471C59.6891 10.4613 52.9099 10.7146 52.9099 6.69212C52.9099 5.46055 54.0181 3.71251 57.3024 3.67278C60.4864 3.61319 62.1511 5.65919 62.3767 6.82124L66.007 5.76348C65.3652 4.35809 64.0013 0.42997 57.1319 0.42997C55.9109 0.400621 54.6932 0.568349 53.5267 0.926572C49.2646 2.35679 48.5125 5.61449 48.5125 7.23838C48.5676 16.6341 62.6575 14.1908 62.4971 19.0476C62.4419 20.8254 60.6819 22.2358 57.1469 22.0818C53.4815 21.9328 52.228 19.7031 51.6313 18.402L47.8105 19.6932ZM12.6859 4.08C15.87 4.01544 17.7603 5.64926 18.1063 6.73682L21.9923 5.68402C21.3455 4.2985 19.1142 0.613713 12.8213 0.325684C0.897543 0.325684 0 11.4049 0 12.5272C0 24.1924 8.74979 25.4885 12.1544 25.6425C15.4982 25.7581 18.8453 25.5485 22.1478 25.0167V10.9132H9.8479V14.8116H17.5297C17.5488 14.8115 17.5672 14.8187 17.5812 14.8316C17.5951 14.8445 17.6036 14.8622 17.6049 14.8811V21.7193C17.6029 21.7398 17.5953 21.7595 17.5829 21.7761C17.5706 21.7927 17.5539 21.8057 17.5347 21.8137C15.9993 22.0665 14.4416 22.1614 12.8865 22.0967C11.8085 22.062 5.05934 21.7938 5.05934 13.0387C5.05934 7.40723 7.89738 4.12965 12.6859 4.09986" fill="#E72E6B"/>
</svg>
