<svg width="42" height="40" viewBox="0 0 42 40" fill="none" xmlns="http://www.w3.org/2000/svg">
<path d="M38.8246 19.042C38.8246 29.5568 30.3114 38.0875 19.8119 38.0875C9.31236 38.0875 0.785156 29.5568 0.785156 19.042C0.785156 8.52721 9.30767 0 19.8119 0C30.3161 0 38.8246 8.52486 38.8246 19.042Z" fill="white"/>
<path d="M19.8118 37.3558C9.73444 37.3558 1.50977 29.1487 1.50977 19.0408C1.50977 8.93296 9.73444 0.727051 19.8118 0.727051C29.8892 0.727051 38.0987 8.94703 38.0987 19.042C38.0987 29.137 29.8963 37.357 19.8118 37.357V37.3558Z" fill="#444444"/>
<path d="M19.812 36.6415C10.1321 36.6415 2.23926 28.7417 2.23926 19.0407C2.23926 9.33969 10.1321 1.45508 19.812 1.45508C29.4918 1.45508 37.3671 9.3479 37.3671 19.0407C37.3671 28.7335 29.4871 36.6415 19.812 36.6415Z" fill="white"/>
<path d="M30.5296 19.0421C30.5296 24.9708 25.7301 29.7773 19.812 29.7773C13.8938 29.7773 9.09668 24.9708 9.09668 19.0421C9.09668 13.1134 13.8985 8.31152 19.812 8.31152C25.7254 8.31152 30.5296 13.1134 30.5296 19.0421Z" fill="#444444"/>
<path d="M29.8659 19.042C29.8659 24.6014 25.3666 29.1112 19.812 29.1112C14.2574 29.1112 9.75806 24.6014 9.75806 19.042C9.75806 13.4827 14.262 8.97754 19.812 8.97754C25.3619 8.97754 29.8659 13.485 29.8659 19.042Z" fill="white"/>
<path d="M9.65138 30.7894L8.74026 29.8466C8.53036 29.6297 8.38965 29.4468 8.31226 29.3037C8.22079 29.1114 8.1692 28.9074 8.17858 28.6869C8.19617 28.4723 8.25597 28.2566 8.36034 28.0443C8.46822 27.8262 8.64411 27.6093 8.88801 27.376C9.10494 27.1766 9.3078 27.023 9.51535 26.928C9.75808 26.8096 10.002 26.7545 10.2377 26.7662C10.3983 26.7709 10.593 26.833 10.7888 26.9327C10.9319 27.0148 11.0984 27.1485 11.2848 27.3419L12.2241 28.3222L9.65255 30.7906L9.65138 30.7894ZM9.57985 29.8548L11.2883 28.2214L10.919 27.8297C10.7829 27.6832 10.6622 27.5917 10.593 27.5331C10.4804 27.4791 10.3901 27.4334 10.2811 27.4334C10.1779 27.4229 10.0559 27.4616 9.90466 27.5331C9.75574 27.6093 9.57985 27.743 9.38168 27.9353C9.19171 28.1252 9.04397 28.2894 8.97947 28.4266C8.90208 28.565 8.86221 28.6951 8.86221 28.8112C8.8669 28.932 8.90091 29.0516 8.97947 29.1677C9.03107 29.258 9.16123 29.4057 9.35588 29.6285L9.58102 29.8537L9.57985 29.8548Z" fill="#444444"/>
<path d="M8.72144 26.1082L8.35559 25.4984C8.55259 25.36 8.66516 25.2041 8.70854 25.0528C8.75779 24.8757 8.72144 24.6999 8.62646 24.5075C8.52444 24.2918 8.40836 24.1616 8.26999 24.0924C8.13162 24.0315 8.00146 24.0303 7.88537 24.0924C7.80798 24.1229 7.75521 24.1769 7.72355 24.2484C7.68838 24.3223 7.68251 24.4196 7.68837 24.5474C7.70831 24.6318 7.74231 24.837 7.80681 25.1384C7.89358 25.5254 7.90179 25.8244 7.84551 26.0226C7.77163 26.3063 7.6016 26.5092 7.34128 26.63C7.17946 26.712 7.00123 26.7425 6.81596 26.712C6.62951 26.6898 6.45714 26.6065 6.29414 26.4693C6.14288 26.3333 5.98927 26.1363 5.872 25.8936C5.68556 25.4843 5.62107 25.1454 5.69494 24.8558C5.77702 24.5709 5.96347 24.3434 6.25545 24.1874L6.59902 24.8359C6.44776 24.9309 6.35512 25.0516 6.32815 25.1736C6.29415 25.3073 6.32815 25.4574 6.41492 25.645C6.50756 25.8291 6.61426 25.9522 6.75029 26.0284C6.84058 26.0671 6.90976 26.0741 6.99654 26.0284C7.07393 25.9932 7.122 25.9334 7.14311 25.842C7.1736 25.7247 7.15132 25.4984 7.06924 25.1372C6.98715 24.7913 6.94846 24.5228 6.96136 24.3258C6.96136 24.1393 7.02234 23.9623 7.11263 23.8157C7.2123 23.6621 7.36122 23.5437 7.56877 23.4463C7.74349 23.3514 7.94283 23.3209 8.15038 23.3467C8.36262 23.3643 8.55259 23.4545 8.7191 23.6023C8.88795 23.7536 9.04157 23.9635 9.17524 24.2472C9.37459 24.6412 9.43087 25.0106 9.34879 25.3096C9.27139 25.6227 9.05446 25.8912 8.7191 26.1093L8.72144 26.1082Z" fill="#444444"/>
<path d="M7.1408 22.5153L6.96373 21.8364C7.19356 21.7566 7.346 21.6499 7.43747 21.5033C7.52893 21.3544 7.55004 21.1785 7.51955 20.9628C7.48086 20.7294 7.40933 20.5664 7.2991 20.4609C7.18067 20.3612 7.05051 20.3202 6.92504 20.3425C6.84765 20.353 6.77846 20.3917 6.72569 20.4468C6.67175 20.5055 6.63892 20.6063 6.61078 20.7306C6.60023 20.8197 6.57677 21.0202 6.54863 21.3169C6.51814 21.7191 6.44427 22.0005 6.32583 22.1846C6.17457 22.4227 5.94708 22.5763 5.67035 22.615C5.4839 22.6455 5.31387 22.615 5.13446 22.5481C4.96561 22.4684 4.82255 22.3429 4.71936 22.1541C4.60679 21.9853 4.52471 21.7578 4.48132 21.4858C4.41683 21.0331 4.45083 20.6966 4.615 20.4433C4.77916 20.19 5.01486 20.0282 5.34202 19.9696L5.48508 20.6684C5.31153 20.7306 5.17551 20.8197 5.11922 20.9346C5.05825 21.0343 5.03479 21.1985 5.07115 21.3978C5.09929 21.6077 5.17082 21.766 5.27635 21.8669C5.34084 21.9278 5.41941 21.9571 5.51439 21.9466C5.59647 21.9267 5.67035 21.8927 5.71373 21.8C5.77002 21.7027 5.81341 21.4822 5.84389 21.1117C5.86969 20.7587 5.91777 20.4867 5.98226 20.3096C6.03385 20.1326 6.14056 19.9743 6.27424 19.8617C6.40792 19.7433 6.58733 19.6694 6.81247 19.6307C7.01181 19.592 7.21936 19.626 7.40933 19.7081C7.60163 19.7972 7.75524 19.9309 7.8854 20.1326C7.99328 20.3143 8.08006 20.5688 8.12344 20.8748C8.19732 21.3181 8.14572 21.6839 7.97218 21.9478C7.80801 22.2245 7.52893 22.4109 7.14197 22.5188L7.1408 22.5153Z" fill="#444444"/>
<path d="M7.46336 14.2742L7.8855 13.675C8.23142 13.8955 8.44953 14.1534 8.55389 14.4466C8.66177 14.7479 8.65356 15.0716 8.54451 15.4421C8.39911 15.8948 8.12237 16.2137 7.72251 16.4002C7.31796 16.6018 6.85478 16.6147 6.32007 16.4459C5.75136 16.2618 5.36674 15.9897 5.13222 15.5934C4.91177 15.1994 4.88128 14.7667 5.0302 14.2918C5.16036 13.8673 5.39606 13.5777 5.7197 13.3854C5.91435 13.2775 6.15942 13.2271 6.45492 13.2365L6.4045 13.974C6.21454 13.9611 6.04803 13.9975 5.90497 14.0948C5.75839 14.1921 5.66693 14.3258 5.60244 14.5076C5.53325 14.7632 5.55436 14.9942 5.68452 15.2064C5.80999 15.421 6.09141 15.5934 6.49362 15.7294C6.91341 15.8549 7.25112 15.8748 7.47743 15.7775C7.71313 15.6778 7.86908 15.5113 7.94179 15.2569C8.00276 15.0775 7.99807 14.9004 7.92068 14.7351C7.84329 14.5709 7.68499 14.4091 7.45985 14.2742H7.46336Z" fill="#444444"/>
<path d="M7.81147 12.3028C7.51129 12.0906 7.30256 11.8631 7.16302 11.6321C7.07273 11.4574 7.00355 11.2733 6.97306 11.0692C6.94257 10.8699 6.95078 10.6881 6.99065 10.5111C7.04224 10.2777 7.1642 10.0397 7.33891 9.804C7.64848 9.38655 8.02958 9.13796 8.47634 9.07933C8.92662 9.02774 9.38277 9.1661 9.85181 9.50499C10.3173 9.8427 10.5847 10.2426 10.6586 10.6881C10.736 11.1384 10.6199 11.5617 10.3126 11.9815C9.99252 12.406 9.61377 12.657 9.16232 12.7238C8.72259 12.7742 8.26293 12.6347 7.81265 12.3017L7.81147 12.3028ZM8.23478 11.6954C8.55491 11.9288 8.85744 12.0366 9.13887 12.0109C9.41209 11.9827 9.63605 11.8596 9.80256 11.6286C9.97728 11.3882 10.0359 11.1443 9.97728 10.8711C9.921 10.6049 9.72634 10.3387 9.38863 10.1007C9.06851 9.85208 8.76598 9.73951 8.4951 9.77469C8.22892 9.79462 8.00378 9.93651 7.83141 10.1616C7.65786 10.4079 7.60041 10.6612 7.65435 10.9203C7.70594 11.1912 7.89708 11.4503 8.23361 11.6954H8.23478Z" fill="#444444"/>
<path d="M11.8512 10.0326L9.89526 7.05187L10.7935 6.45501L12.6732 8.13184L11.8641 5.74207L12.7682 5.15576L14.7252 8.13888L14.1647 8.51059L12.6251 6.15482L13.5773 8.89521L12.9933 9.27396L10.8697 7.31688L12.4093 9.66796L11.8512 10.0338V10.0326Z" fill="#444444"/>
<path d="M15.6175 7.82852L14.7263 4.37401L15.8426 4.08203C16.2683 3.9765 16.5521 3.92139 16.6904 3.92139C16.8933 3.92139 17.095 3.98588 17.2674 4.12659C17.4538 4.26965 17.5746 4.4772 17.6485 4.75394C17.6965 4.96735 17.7024 5.14559 17.666 5.32031C17.6274 5.48096 17.5582 5.60994 17.4632 5.73189C17.3635 5.83977 17.2603 5.93475 17.1431 5.98869C16.9789 6.06609 16.7514 6.13996 16.4254 6.2326L15.9751 6.33813L16.3129 7.64676L15.6187 7.82617L15.6175 7.82852ZM15.5788 4.77856L15.8321 5.75652L16.2038 5.65919C16.4852 5.5947 16.6599 5.51613 16.742 5.46923C16.8265 5.40825 16.8874 5.33555 16.9167 5.22884C16.9531 5.14676 16.9531 5.05413 16.925 4.94507C16.8921 4.82195 16.8347 4.73283 16.7373 4.66365C16.6424 4.60267 16.5345 4.57218 16.4102 4.58157C16.3281 4.58977 16.1639 4.62964 15.913 4.69414L15.5776 4.77856H15.5788Z" fill="#444444"/>
<path d="M19.146 7.09323L19.2926 3.55664L20.0067 3.59065L19.8859 6.52099L21.6788 6.58783L21.6507 7.18704L19.146 7.09205V7.09323Z" fill="#444444"/>
<path d="M22.448 7.41915L23.3286 3.95996L24.0334 4.15227L23.1375 7.59974L22.448 7.41798V7.41915Z" fill="#444444"/>
<path d="M26.9521 9.34929L26.2509 8.99047L26.3658 8.12509L25.1006 7.45201L24.4627 8.02541L23.7966 7.67949L26.6824 5.1748L27.3614 5.52541L26.9521 9.34929ZM26.435 7.47781L26.6214 6.08709L25.5872 7.02987L26.435 7.47781Z" fill="#444444"/>
<path d="M27.4187 9.77722L29.9902 7.31592L30.4745 7.81779L29.7651 10.5242L31.483 8.88252L31.9461 9.35391L29.3676 11.8223L28.8704 11.3028L29.5564 8.65504L27.876 10.2662L27.4199 9.77722H27.4187Z" fill="#444444"/>
<path d="M30.2939 13.4029L32.9393 12.0813L32.4656 11.1292L33.0062 10.8677L34.2714 13.4029L33.7332 13.6714L33.2618 12.7263L30.6059 14.0454L30.2939 13.4029Z" fill="#444444"/>
<path d="M11.9707 23.0214V15.5977H14.3804C15.2821 15.5977 15.879 15.6364 16.1569 15.7079C16.5791 15.8251 16.9402 16.0608 17.2299 16.4302C17.5113 16.809 17.6543 17.2909 17.6543 17.8819C17.6543 18.338 17.5769 18.7168 17.4034 19.0322C17.2427 19.3453 17.0352 19.5833 16.7784 19.7651C16.5228 19.9398 16.266 20.0618 16.0021 20.1181C15.6457 20.1872 15.1285 20.213 14.4484 20.213H13.4798V23.0203H11.9719L11.9707 23.0214ZM13.4787 16.8547V18.963H14.2948C14.8858 18.963 15.2786 18.9197 15.4733 18.8458C15.6808 18.7684 15.8321 18.6441 15.9447 18.4799C16.0525 18.3158 16.1135 18.127 16.1135 17.8983C16.1135 17.6263 16.0314 17.407 15.8731 17.2405C15.716 17.054 15.519 16.9485 15.2692 16.9004C15.0957 16.8664 14.7369 16.8535 14.201 16.8535H13.4787V16.8547Z" fill="#444444"/>
<path d="M23.6381 20.2953L25.0804 20.7561C24.8576 21.5652 24.4917 22.1727 23.964 22.5584C23.4551 22.9583 22.7961 23.1529 22.0046 23.1529C21.0091 23.1529 20.1964 22.8152 19.5691 22.1433C18.9394 21.4703 18.6169 20.5427 18.6169 19.3807C18.6169 18.1389 18.9394 17.1785 19.5773 16.4972C20.2199 15.8159 21.0571 15.4653 22.0867 15.4653C22.9955 15.4653 23.7389 15.7339 24.31 16.2791C24.643 16.5922 24.8939 17.0495 25.0675 17.6393L23.5818 17.9958C23.495 17.6112 23.3074 17.3075 23.0306 17.0835C22.7574 16.8631 22.4162 16.7505 22.0187 16.7505C21.4828 16.7505 21.0196 16.9499 20.6772 17.3415C20.3395 17.7355 20.1601 18.384 20.1601 19.2646C20.1601 20.212 20.3348 20.8722 20.669 21.2744C21.0102 21.6813 21.4476 21.8654 21.9929 21.8654C22.3892 21.8654 22.7281 21.7446 23.0142 21.4961C23.3039 21.2369 23.5055 20.8429 23.6392 20.2977L23.6381 20.2953Z" fill="#444444"/>
<path d="M26.3188 23.0214V15.5977H27.8245V23.0214H26.3188Z" fill="#444444"/>
<path d="M22.5781 39.9988C21.375 39.9988 19.9819 39.2718 18.8527 38.0699L18.712 37.9362C16.1416 35.2041 13.9054 32.4074 15.03 30.4409C15.4298 29.7397 16.2495 29.3035 17.1712 29.3035C18.0928 29.3035 19.0333 29.7514 19.8095 30.5582C20.6573 31.4541 21.4582 32.3464 21.9941 32.9374C24.3557 29.7209 32.4631 18.8649 35.2879 17.67C36.5555 17.1224 37.802 16.8457 38.9875 16.8457C40.0652 16.8457 40.6925 17.0837 40.7675 17.1142L42 17.5962L40.9622 18.4029C40.9059 18.4545 34.6524 23.4147 31.5403 28.4182C31.4641 28.5178 25.0405 38.818 23.76 39.6729C23.4352 39.8828 23.0283 40 22.5769 40L22.5781 39.9988Z" fill="white"/>
<path d="M15.6843 30.8149C16.1557 29.9847 17.8067 29.5426 19.2701 31.074C20.7277 32.6113 22.0515 34.1416 22.0515 34.1416C22.0515 34.1416 32.564 19.6423 35.5881 18.3536C38.6017 17.0672 40.4978 17.8177 40.4978 17.8177C40.4978 17.8177 34.1235 22.84 30.8977 28.01C27.6613 33.1988 24.0579 38.5787 23.3356 39.0525C22.6343 39.5215 20.9258 39.1826 19.3968 37.5574C18.0834 36.1643 14.6536 32.6231 15.6831 30.8149H15.6843Z" fill="#444444"/>
</svg>
