<svg width="24" height="24" viewBox="0 0 24 24" fill="none" xmlns="http://www.w3.org/2000/svg">
<path d="M22.1509 11.0884C22.1509 17.2113 17.1936 22.1789 11.0796 22.1789C4.96552 22.1789 0 17.2113 0 11.0884C0 4.96552 4.96279 0 11.0796 0C17.1963 0 22.1509 4.96415 22.1509 11.0884Z" fill="white"/>
<path d="M11.0794 21.7523C5.21122 21.7523 0.421875 16.9732 0.421875 11.0872C0.421875 5.20128 5.21122 0.422852 11.0794 0.422852C16.9477 0.422852 21.7281 5.20947 21.7281 11.0879C21.7281 16.9664 16.9517 21.753 11.0794 21.753V21.7523Z" fill="black"/>
<path d="M11.0795 21.3363C5.44279 21.3363 0.84668 16.7361 0.84668 11.087C0.84668 5.43801 5.44279 0.84668 11.0795 0.84668C16.7163 0.84668 21.3021 5.44279 21.3021 11.087C21.3021 16.7313 16.7135 21.3363 11.0795 21.3363Z" fill="white"/>
<path d="M17.3206 11.0884C17.3206 14.5408 14.5257 17.3397 11.0795 17.3397C7.63329 17.3397 4.83984 14.5408 4.83984 11.0884C4.83984 7.63602 7.63602 4.83984 11.0795 4.83984C14.523 4.83984 17.3206 7.63602 17.3206 11.0884Z" fill="black"/>
<path d="M16.9342 11.0882C16.9342 14.3255 14.3142 16.9517 11.0797 16.9517C7.8451 16.9517 5.2251 14.3255 5.2251 11.0882C5.2251 7.85096 7.84784 5.22754 11.0797 5.22754C14.3115 5.22754 16.9342 7.85233 16.9342 11.0882Z" fill="white"/>
<path d="M5.16295 17.9296L4.6324 17.3806C4.51017 17.2543 4.42823 17.1478 4.38316 17.0645C4.3299 16.9525 4.29986 16.8337 4.30532 16.7053C4.31557 16.5804 4.35039 16.4547 4.41116 16.3311C4.47398 16.2041 4.5764 16.0778 4.71843 15.9419C4.84476 15.8258 4.96289 15.7364 5.08375 15.6811C5.22509 15.6121 5.36712 15.58 5.50437 15.5868C5.59791 15.5896 5.71126 15.6258 5.82529 15.6838C5.9086 15.7316 6.00556 15.8094 6.11413 15.9221L6.66108 16.4929L5.16364 17.9303L5.16295 17.9296ZM5.1213 17.3854L6.11618 16.4342L5.90109 16.2062C5.82188 16.1208 5.75155 16.0675 5.71126 16.0334C5.64571 16.002 5.59313 15.9754 5.52963 15.9754C5.46954 15.9692 5.39853 15.9918 5.31044 16.0334C5.22373 16.0778 5.1213 16.1556 5.0059 16.2676C4.89528 16.3782 4.80925 16.4738 4.77169 16.5537C4.72663 16.6343 4.70341 16.7101 4.70341 16.7777C4.70614 16.848 4.72594 16.9177 4.77169 16.9853C4.80174 17.0378 4.87753 17.1239 4.99088 17.2536L5.12198 17.3847L5.1213 17.3854Z" fill="black"/>
<path d="M4.62134 15.203L4.4083 14.8479C4.52301 14.7674 4.58857 14.6765 4.61383 14.5885C4.64251 14.4854 4.62134 14.3829 4.56603 14.2709C4.50663 14.1453 4.43903 14.0695 4.35845 14.0292C4.27788 13.9937 4.20209 13.993 4.13449 14.0292C4.08942 14.047 4.05869 14.0784 4.04026 14.12C4.01977 14.1631 4.01636 14.2197 4.01977 14.2942C4.03138 14.3433 4.05118 14.4628 4.08874 14.6383C4.13927 14.8636 4.14405 15.0378 4.11127 15.1532C4.06825 15.3184 3.96924 15.4365 3.81765 15.5069C3.72342 15.5547 3.61964 15.5724 3.51175 15.5547C3.40318 15.5417 3.3028 15.4932 3.20789 15.4133C3.11981 15.3341 3.03035 15.2194 2.96207 15.0781C2.8535 14.8397 2.81595 14.6424 2.85896 14.4737C2.90676 14.3078 3.01533 14.1754 3.18536 14.0845L3.38543 14.4621C3.29734 14.5175 3.2434 14.5878 3.22769 14.6588C3.20789 14.7366 3.22769 14.824 3.27822 14.9333C3.33216 15.0405 3.3943 15.1122 3.47351 15.1566C3.52609 15.1791 3.56637 15.1832 3.6169 15.1566C3.66197 15.1361 3.68997 15.1013 3.70226 15.048C3.72001 14.9797 3.70704 14.8479 3.65924 14.6376C3.61144 14.4362 3.58891 14.2798 3.59642 14.1651C3.59642 14.0565 3.63193 13.9534 3.6845 13.8681C3.74254 13.7786 3.82926 13.7097 3.95012 13.653C4.05186 13.5977 4.16794 13.5799 4.2888 13.595C4.4124 13.6052 4.52301 13.6578 4.61998 13.7438C4.7183 13.8319 4.80775 13.9541 4.8856 14.1194C5.00168 14.3488 5.03445 14.5639 4.98665 14.738C4.94159 14.9203 4.81526 15.0767 4.61998 15.2037L4.62134 15.203Z" fill="black"/>
<path d="M3.70101 13.1109L3.59791 12.7156C3.73174 12.6691 3.82051 12.607 3.87377 12.5216C3.92703 12.4349 3.93932 12.3325 3.92157 12.2069C3.89904 12.071 3.85738 11.9761 3.7932 11.9146C3.72423 11.8566 3.64844 11.8327 3.57537 11.8456C3.53031 11.8518 3.49002 11.8743 3.45929 11.9064C3.42788 11.9405 3.40877 11.9993 3.39238 12.0717C3.38623 12.1235 3.37258 12.2403 3.35619 12.4131C3.33843 12.6473 3.29541 12.8112 3.22645 12.9184C3.13836 13.057 3.0059 13.1464 2.84475 13.169C2.73618 13.1867 2.63717 13.169 2.5327 13.13C2.43437 13.0836 2.35107 13.0105 2.29098 12.9006C2.22543 12.8023 2.17763 12.6698 2.15236 12.5114C2.11481 12.2478 2.13461 12.0518 2.2302 11.9044C2.3258 11.7569 2.46305 11.6626 2.65356 11.6285L2.73686 12.0355C2.6358 12.0717 2.5566 12.1235 2.52382 12.1905C2.48831 12.2485 2.47466 12.3441 2.49583 12.4602C2.51221 12.5824 2.55387 12.6746 2.61532 12.7333C2.65288 12.7688 2.69862 12.7859 2.75393 12.7797C2.80173 12.7681 2.84475 12.7483 2.87001 12.6944C2.90279 12.6377 2.92805 12.5093 2.94581 12.2936C2.96083 12.088 2.98883 11.9296 3.02638 11.8265C3.05643 11.7234 3.11856 11.6312 3.1964 11.5657C3.27425 11.4967 3.37872 11.4537 3.50982 11.4312C3.6259 11.4086 3.74676 11.4284 3.85738 11.4762C3.96937 11.5281 4.05882 11.606 4.13461 11.7234C4.19743 11.8292 4.24796 11.9774 4.27322 12.1556C4.31624 12.4137 4.2862 12.6268 4.18514 12.7804C4.08954 12.9416 3.92703 13.0501 3.7017 13.113L3.70101 13.1109Z" fill="black"/>
<path d="M3.88863 8.31198L4.13445 7.96305C4.33589 8.09142 4.46289 8.24165 4.52366 8.41235C4.58648 8.58784 4.5817 8.7763 4.5182 8.99207C4.43353 9.25564 4.27238 9.44137 4.03954 9.54994C3.80396 9.66739 3.53425 9.6749 3.22288 9.57657C2.89171 9.46937 2.66774 9.31095 2.53117 9.08016C2.4028 8.85073 2.38505 8.59876 2.47177 8.32222C2.54756 8.07504 2.68481 7.90638 2.87327 7.79439C2.98662 7.73157 3.12933 7.70221 3.3014 7.70767L3.27204 8.13717C3.16142 8.12966 3.06446 8.15083 2.98116 8.2075C2.8958 8.26418 2.84254 8.34202 2.80499 8.44786C2.7647 8.59672 2.77699 8.73123 2.85278 8.85482C2.92585 8.97978 3.08973 9.08016 3.32394 9.15936C3.56839 9.23243 3.76504 9.24404 3.89683 9.18736C4.03408 9.12932 4.12489 9.03236 4.16723 8.88419C4.20273 8.77971 4.2 8.67661 4.15494 8.58033C4.10987 8.48473 4.01769 8.3905 3.88659 8.31198H3.88863Z" fill="black"/>
<path d="M4.09151 7.16445C3.9167 7.04085 3.79516 6.90839 3.7139 6.77387C3.66133 6.67213 3.62104 6.56492 3.60329 6.44611C3.58553 6.33003 3.59031 6.22419 3.61353 6.12109C3.64357 5.9852 3.71459 5.84659 3.81633 5.70934C3.99659 5.46626 4.21851 5.3215 4.47867 5.28735C4.74087 5.25731 5.00649 5.33788 5.27962 5.53522C5.55071 5.73188 5.70639 5.96472 5.74941 6.22419C5.79448 6.4864 5.72688 6.7329 5.54797 6.97735C5.36156 7.22453 5.14101 7.37066 4.87812 7.40958C4.62206 7.43894 4.3544 7.35769 4.09219 7.16376L4.09151 7.16445ZM4.33801 6.81074C4.52442 6.94662 4.70059 7.00944 4.86447 6.99442C5.02357 6.97803 5.15399 6.90634 5.25095 6.77182C5.35269 6.63184 5.38683 6.48981 5.35269 6.33071C5.31991 6.17571 5.20656 6.02071 5.00991 5.8821C4.8235 5.73734 4.64733 5.67179 4.48959 5.69227C4.33459 5.70388 4.20349 5.7865 4.10311 5.9176C4.00205 6.061 3.9686 6.20849 4.00001 6.35939C4.03005 6.51713 4.14135 6.66803 4.33732 6.81074H4.33801Z" fill="black"/>
<path d="M6.44389 5.84281L5.30493 4.10706L5.82798 3.7595L6.92255 4.73594L6.4514 3.34434L6.97786 3.00293L8.1175 4.74004L7.7911 4.9565L6.89455 3.5847L7.44901 5.18046L7.10896 5.40102L5.87236 4.26138L6.76891 5.63045L6.44389 5.84349V5.84281Z" fill="black"/>
<path d="M8.63711 4.55838L8.11816 2.54677L8.76821 2.37675C9.01608 2.3153 9.18133 2.2832 9.2619 2.2832C9.38003 2.2832 9.49747 2.32076 9.59785 2.4027C9.70642 2.486 9.77675 2.60686 9.81977 2.76801C9.84776 2.89228 9.85118 2.99607 9.83001 3.09782C9.80748 3.19136 9.76719 3.26647 9.71188 3.33749C9.65384 3.40031 9.59375 3.45562 9.52547 3.48703C9.42987 3.53209 9.29741 3.57511 9.10758 3.62906L8.84537 3.69051L9.04203 4.45254L8.63779 4.55702L8.63711 4.55838ZM8.61458 2.78235L8.76207 3.35183L8.97853 3.29515C9.1424 3.2576 9.24415 3.21185 9.29194 3.18453C9.34111 3.14903 9.37661 3.10669 9.39368 3.04456C9.41485 2.99676 9.41485 2.94281 9.39846 2.87931C9.37935 2.80761 9.34589 2.75572 9.28921 2.71543C9.2339 2.67993 9.17108 2.66217 9.0987 2.66763C9.0509 2.67241 8.95531 2.69563 8.80918 2.73319L8.6139 2.78235H8.61458Z" fill="black"/>
<path d="M10.6917 4.1307L10.777 2.07129L11.1928 2.09109L11.1225 3.79748L12.1666 3.8364L12.1502 4.18532L10.6917 4.13001V4.1307Z" fill="black"/>
<path d="M12.6145 4.32098L13.1273 2.30664L13.5377 2.41862L13.016 4.42614L12.6145 4.3203V4.32098Z" fill="black"/>
<path d="M15.2374 5.44454L14.8291 5.23559L14.896 4.73166L14.1592 4.33972L13.7877 4.67362L13.3999 4.47219L15.0803 3.01367L15.4757 3.21784L15.2374 5.44454ZM14.9363 4.35474L15.0448 3.54491L14.4426 4.0939L14.9363 4.35474Z" fill="black"/>
<path d="M15.509 5.694L17.0065 4.26074L17.2885 4.55299L16.8754 6.12896L17.8757 5.173L18.1454 5.4475L16.6439 6.88485L16.3544 6.58235L16.7538 5.04053L15.7753 5.97873L15.5097 5.694H15.509Z" fill="black"/>
<path d="M17.1833 7.80537L18.7238 7.03583L18.4479 6.48137L18.7627 6.3291L19.4995 7.80537L19.1861 7.96174L18.9116 7.41138L17.365 8.17956L17.1833 7.80537Z" fill="black"/>
<path d="M6.51343 13.406V9.08301H7.91664C8.44173 9.08301 8.78929 9.10554 8.95112 9.14719C9.19694 9.21548 9.40725 9.35272 9.57591 9.56781C9.73979 9.78837 9.82309 10.069 9.82309 10.4132C9.82309 10.6788 9.77802 10.8993 9.67696 11.083C9.58342 11.2653 9.46256 11.4039 9.31302 11.5098C9.16416 11.6115 9.01462 11.6825 8.86099 11.7153C8.65341 11.7556 8.35228 11.7706 7.95624 11.7706H7.39223V13.4053H6.51411L6.51343 13.406ZM7.39154 9.815V11.0427H7.86679C8.21094 11.0427 8.43968 11.0175 8.55303 10.9744C8.67389 10.9294 8.76198 10.857 8.82753 10.7614C8.89035 10.6658 8.92585 10.5559 8.92585 10.4227C8.92585 10.2643 8.87806 10.1366 8.78588 10.0396C8.69438 9.93108 8.57966 9.86962 8.43422 9.84163C8.33316 9.82183 8.12422 9.81431 7.81216 9.81431H7.39154V9.815Z" fill="black"/>
<path d="M13.3077 11.8174L14.1475 12.0858C14.0178 12.5569 13.8048 12.9107 13.4975 13.1353C13.2011 13.3681 12.8174 13.4815 12.3565 13.4815C11.7768 13.4815 11.3036 13.2848 10.9382 12.8936C10.5716 12.5016 10.3838 11.9615 10.3838 11.2848C10.3838 10.5617 10.5716 10.0025 10.943 9.60577C11.3172 9.20905 11.8048 9.00488 12.4043 9.00488C12.9335 9.00488 13.3664 9.16125 13.6989 9.47876C13.8928 9.66108 14.039 9.92738 14.14 10.2708L13.2749 10.4784C13.2244 10.2545 13.1151 10.0776 12.954 9.94718C12.7949 9.81881 12.5961 9.75326 12.3647 9.75326C12.0526 9.75326 11.7829 9.86934 11.5835 10.0974C11.3869 10.3268 11.2824 10.7044 11.2824 11.2172C11.2824 11.769 11.3841 12.1534 11.5787 12.3876C11.7774 12.6245 12.0321 12.7318 12.3496 12.7318C12.5804 12.7318 12.7778 12.6614 12.9444 12.5167C13.113 12.3658 13.2305 12.1363 13.3083 11.8188L13.3077 11.8174Z" fill="black"/>
<path d="M14.8687 13.406V9.08301H15.7454V13.406H14.8687Z" fill="black"/>
<path d="M12.6904 23.292C11.9898 23.292 11.1786 22.8686 10.521 22.1687L10.4391 22.0909C8.94235 20.4999 7.6402 18.8714 8.29503 17.7263C8.52788 17.3179 9.00517 17.0639 9.54187 17.0639C10.0786 17.0639 10.6262 17.3248 11.0782 17.7945C11.5719 18.3162 12.0383 18.8359 12.3503 19.18C13.7256 17.307 18.4466 10.9854 20.0915 10.2896C20.8297 9.97072 21.5555 9.80957 22.2459 9.80957C22.8734 9.80957 23.2387 9.94818 23.2824 9.96594L24 10.2466L23.3957 10.7164C23.363 10.7464 19.7215 13.6348 17.9092 16.5484C17.8649 16.6064 14.1243 22.6044 13.3787 23.1022C13.1895 23.2244 12.9526 23.2927 12.6897 23.2927L12.6904 23.292Z" fill="white"/>
<path d="M8.67599 17.9432C8.95049 17.4598 9.91191 17.2024 10.7641 18.0941C11.6128 18.9893 12.3837 19.8804 12.3837 19.8804C12.3837 19.8804 18.5053 11.4372 20.2663 10.6868C22.0212 9.93776 23.1253 10.3748 23.1253 10.3748C23.1253 10.3748 19.4134 13.2993 17.535 16.3099C15.6504 19.3314 13.5521 22.4642 13.1314 22.7401C12.7231 23.0132 11.7282 22.8159 10.8378 21.8695C10.0731 21.0583 8.07579 18.9961 8.67531 17.9432H8.67599Z" fill="black"/>
</svg>
